<?xml version="1.0" encoding="UTF-8"?>
<svg xmlns="http://www.w3.org/2000/svg" xmlns:xlink="http://www.w3.org/1999/xlink" width="256px" height="256px" viewBox="0 0 256 256" version="1.1">
<g id="surface1">
<path style=" stroke:none;fill-rule:nonzero;fill:rgb(14.509805%,38.82353%,50.980395%);fill-opacity:1;" d="M 219.601562 158.800781 L 248.800781 189.199219 L 120.398438 253.601562 C 120.398438 253.601562 103.601562 262 95.601562 248.800781 C 63.601562 196.800781 219.601562 158.800781 219.601562 158.800781 "/>
<path style=" stroke:none;fill-rule:nonzero;fill:rgb(85.09804%,89.019608%,90.980393%);fill-opacity:1;" d="M 116.800781 215.601562 C 116.800781 215.601562 92.398438 224.800781 96.800781 242 C 101.601562 260 121.199219 249.199219 121.199219 249.199219 L 243.199219 189.199219 C 243.199219 189.199219 236.398438 170 248.800781 157.199219 L 116.800781 215.601562 "/>
<path style=" stroke:none;fill-rule:nonzero;fill:rgb(25.882354%,67.843139%,88.627452%);fill-opacity:1;" d="M 137.601562 35.601562 L 254.398438 156 L 116.398438 213.199219 L 28 66.800781 Z M 137.601562 35.601562 "/>
<path style=" stroke:none;fill-rule:nonzero;fill:rgb(58.039218%,59.607846%,60.784316%);fill-opacity:1;" d="M 242.800781 170.398438 L 161.199219 205.601562 L 241.199219 166.800781 Z M 242.800781 170.398438 "/>
<path style=" stroke:none;fill-rule:nonzero;fill:rgb(58.039218%,59.607846%,60.784316%);fill-opacity:1;" d="M 241.601562 180.800781 L 154.800781 218.800781 L 240 177.199219 Z M 241.601562 180.800781 "/>
<path style=" stroke:none;fill-rule:nonzero;fill:rgb(58.039218%,59.607846%,60.784316%);fill-opacity:1;" d="M 242.398438 186.800781 L 131.601562 237.601562 L 240.800781 183.199219 Z M 242.398438 186.800781 "/>
<path style=" stroke:none;fill-rule:nonzero;fill:rgb(25.882354%,54.509807%,75.686276%);fill-opacity:1;" d="M 95.199219 248.398438 C 81.601562 218.398438 116.398438 213.199219 116.398438 213.199219 L 28 66.800781 C 28 66.800781 8 66.398438 8 88.398438 C 8 97.601562 12 104.398438 12 104.398438 L 95.199219 248.398438 "/>
<path style=" stroke:none;fill-rule:nonzero;fill:rgb(32.941177%,46.666667%,14.509805%);fill-opacity:1;" d="M 34.800781 128.800781 L 5.601562 159.199219 L 134 223.601562 C 134 223.601562 150.800781 232 158.800781 218.800781 C 190.800781 166.800781 34.800781 128.800781 34.800781 128.800781 "/>
<path style=" stroke:none;fill-rule:nonzero;fill:rgb(85.09804%,89.019608%,90.980393%);fill-opacity:1;" d="M 137.199219 185.601562 C 137.199219 185.601562 161.601562 194.800781 157.199219 212 C 152.398438 230 133.199219 219.199219 133.199219 219.199219 L 11.199219 159.199219 C 11.199219 159.199219 18 140 5.601562 127.199219 L 137.199219 185.601562 "/>
<path style=" stroke:none;fill-rule:nonzero;fill:rgb(51.372552%,74.901962%,30.980393%);fill-opacity:1;" d="M 116.800781 5.601562 L 0 126 L 138 183.199219 L 226.398438 36.800781 Z M 116.800781 5.601562 "/>
<path style=" stroke:none;fill-rule:nonzero;fill:rgb(58.039218%,59.607846%,60.784316%);fill-opacity:1;" d="M 12.800781 136.800781 L 92.800781 175.601562 L 11.199219 140.398438 Z M 12.800781 136.800781 "/>
<path style=" stroke:none;fill-rule:nonzero;fill:rgb(58.039218%,59.607846%,60.784316%);fill-opacity:1;" d="M 14.398438 147.199219 L 99.199219 188.800781 L 12.398438 150.800781 Z M 14.398438 147.199219 "/>
<path style=" stroke:none;fill-rule:nonzero;fill:rgb(58.039218%,59.607846%,60.784316%);fill-opacity:1;" d="M 13.601562 153.199219 L 122.398438 207.601562 L 11.601562 156.800781 Z M 13.601562 153.199219 "/>
<path style=" stroke:none;fill-rule:nonzero;fill:rgb(41.176471%,58.823532%,20.784314%);fill-opacity:1;" d="M 159.199219 218.398438 C 172.800781 188.398438 138 183.199219 138 183.199219 L 226.398438 36.800781 C 226.398438 36.800781 246.398438 36.398438 246.398438 58.398438 C 246.398438 67.601562 242.398438 74.398438 242.398438 74.398438 L 159.199219 218.398438 "/>
<path style=" stroke:none;fill-rule:nonzero;fill:rgb(58.823532%,17.254902%,17.254902%);fill-opacity:1;" d="M 226.800781 104 L 251.199219 129.601562 L 142.800781 183.601562 C 142.800781 183.601562 128.398438 190.398438 121.601562 179.601562 C 95.199219 136 226.800781 104 226.800781 104 Z M 226.800781 104 "/>
<path style=" stroke:none;fill-rule:nonzero;fill:rgb(85.09804%,89.019608%,90.980393%);fill-opacity:1;" d="M 140 152 C 140 152 119.199219 159.601562 123.199219 174.398438 C 127.199219 189.601562 143.601562 180.398438 143.601562 180.398438 L 246.398438 129.601562 C 246.398438 129.601562 240.800781 113.601562 251.199219 102.800781 Z M 140 152 "/>
<path style=" stroke:none;fill-rule:nonzero;fill:rgb(92.941177%,29.803923%,36.078432%);fill-opacity:1;" d="M 157.601562 0 L 256 101.601562 L 139.601562 150 L 64.800781 26.398438 Z M 157.601562 0 "/>
<path style=" stroke:none;fill-rule:nonzero;fill:rgb(100%,100%,100%);fill-opacity:1;" d="M 160.398438 23.199219 L 179.601562 44.398438 L 108.800781 71.199219 L 92 44 Z M 160.398438 23.199219 "/>
<path style=" stroke:none;fill-rule:nonzero;fill:rgb(58.039218%,59.607846%,60.784316%);fill-opacity:1;" d="M 246.398438 114 L 177.601562 143.199219 L 244.800781 110.398438 Z M 246.398438 114 "/>
<path style=" stroke:none;fill-rule:nonzero;fill:rgb(58.039218%,59.607846%,60.784316%);fill-opacity:1;" d="M 245.601562 122.800781 L 172 154.398438 L 244 119.199219 Z M 245.601562 122.800781 "/>
<path style=" stroke:none;fill-rule:nonzero;fill:rgb(58.039218%,59.607846%,60.784316%);fill-opacity:1;" d="M 246.398438 127.601562 L 152.800781 170.398438 L 244.398438 124 Z M 246.398438 127.601562 "/>
<path style=" stroke:none;fill-rule:nonzero;fill:rgb(78.823531%,27.843139%,27.843139%);fill-opacity:1;" d="M 122 179.601562 C 110.800781 154.398438 140 150 140 150 L 64.800781 26.398438 C 64.800781 26.398438 47.601562 26 47.601562 44.398438 C 47.601562 52 50.800781 58 50.800781 58 L 122 179.601562 "/>
</g>
</svg>
