<?xml version="1.0" encoding="UTF-8"?>
<svg xmlns="http://www.w3.org/2000/svg" xmlns:xlink="http://www.w3.org/1999/xlink" width="px" height="256px" viewBox="0 0 256 256" version="1.1">
<g id="surface1">
<path style=" stroke:none;fill-rule:nonzero;fill:rgb(26.666668%,71.764708%,54.509807%);fill-opacity:1;" d="M 113.078125 32 L 144.800781 32 L 144.800781 177.351562 C 131.261719 180.132812 117.476562 181.566406 103.65625 181.632812 C 64.921875 181.59375 44.761719 164.289062 44.761719 131.054688 C 44.761719 99.054688 66.144531 78.257812 99.289062 78.257812 C 103.9375 78.164062 108.574219 78.703125 113.078125 79.855469 Z M 113.078125 105.136719 C 109.632812 104 106.015625 103.457031 102.382812 103.535156 C 86.382812 103.535156 77.078125 113.320312 77.078125 130.464844 C 77.078125 147.160156 85.9375 156.375 102.183594 156.375 C 105.832031 156.375 109.472656 156.109375 113.078125 155.574219 Z M 113.078125 105.136719 "/>
<path style=" stroke:none;fill-rule:nonzero;fill:rgb(26.666668%,71.764708%,54.509807%);fill-opacity:1;" d="M 195.199219 80.472656 L 195.199219 153.273438 C 195.199219 178.335938 193.320312 190.382812 187.816406 200.777344 C 182.199219 211.34375 173.011719 219.574219 161.894531 224 L 132.472656 210.136719 C 143.160156 206.476562 152.113281 198.980469 157.601562 189.105469 C 162.128906 180.136719 163.558594 169.742188 163.558594 142.40625 L 163.558594 80.472656 Z M 195.199219 80.472656 "/>
<path style=" stroke:none;fill-rule:nonzero;fill:rgb(26.666668%,71.764708%,54.509807%);fill-opacity:1;" d="M 163.527344 32.160156 L 195.238281 32.160156 L 195.238281 64.382812 L 163.527344 64.382812 Z M 163.527344 32.160156 "/>
</g>
</svg>
