<?xml version="1.0" encoding="UTF-8"?>
<svg xmlns="http://www.w3.org/2000/svg" xmlns:xlink="http://www.w3.org/1999/xlink" width="128px" height="128px" viewBox="0 0 128 128" version="1.1">
<g id="surface1">
<path style=" stroke:none;fill-rule:evenodd;fill:rgb(13.333334%,62.7451%,78.431374%);fill-opacity:1;" d="M 110.785156 37.441406 C 111.550781 31.480469 107.09375 26.800781 104.328125 24.582031 C 101.140625 28.265625 100.648438 37.917969 105.644531 41.984375 C 102.855469 44.460938 96.976562 46.707031 90.957031 46.707031 L 17.683594 46.707031 C 17.101562 52.992188 18.203125 58.777344 20.722656 63.730469 L 21.554688 65.257812 C 22.082031 66.152344 22.660156 67.015625 23.285156 67.847656 C 26.296875 68.042969 29.074219 68.109375 31.613281 68.050781 L 31.617188 68.050781 C 36.609375 67.941406 40.683594 67.351562 43.773438 66.28125 C 44.226562 66.140625 44.710938 66.386719 44.863281 66.835938 C 45.019531 67.285156 44.792969 67.773438 44.347656 67.945312 C 43.9375 68.089844 43.507812 68.222656 43.066406 68.347656 C 40.632812 69.042969 38.027344 69.507812 34.664062 69.714844 C 34.863281 69.71875 34.453125 69.746094 34.453125 69.746094 C 34.339844 69.753906 34.195312 69.769531 34.078125 69.777344 C 32.757812 69.851562 31.328125 69.867188 29.867188 69.867188 C 28.269531 69.867188 26.695312 69.835938 24.933594 69.746094 L 24.890625 69.777344 C 30.996094 76.636719 40.539062 80.753906 52.507812 80.753906 C 77.832031 80.753906 99.3125 69.527344 108.824219 44.324219 C 115.570312 45.019531 122.054688 43.296875 125.007812 37.539062 C 120.308594 34.828125 114.265625 35.691406 110.785156 37.441406 "/>
<path style=" stroke:none;fill-rule:evenodd;fill:rgb(21.568628%,69.411767%,85.09804%);fill-opacity:1;" d="M 110.785156 37.441406 C 111.550781 31.480469 107.09375 26.800781 104.328125 24.582031 C 101.140625 28.265625 100.648438 37.917969 105.644531 41.984375 C 102.855469 44.460938 96.976562 46.707031 90.957031 46.707031 L 22.023438 46.707031 C 21.726562 56.332031 25.296875 63.636719 31.613281 68.050781 L 31.617188 68.050781 C 36.609375 67.941406 40.683594 67.351562 43.773438 66.28125 C 44.226562 66.140625 44.710938 66.386719 44.863281 66.835938 C 45.019531 67.285156 44.792969 67.773438 44.347656 67.945312 C 43.9375 68.089844 43.507812 68.222656 43.066406 68.347656 C 40.632812 69.042969 37.800781 69.570312 34.4375 69.777344 C 34.4375 69.777344 34.355469 69.699219 34.355469 69.699219 C 42.972656 74.121094 55.472656 74.105469 69.796875 68.601562 C 85.863281 62.429688 100.8125 50.671875 111.242188 37.222656 C 111.085938 37.292969 110.933594 37.367188 110.785156 37.441406 "/>
<path style=" stroke:none;fill-rule:evenodd;fill:rgb(10.588235%,50.588238%,64.705884%);fill-opacity:1;" d="M 17.824219 54.34375 C 18.277344 57.710938 19.261719 60.859375 20.722656 63.730469 L 21.554688 65.257812 C 22.082031 66.152344 22.660156 67.015625 23.285156 67.847656 C 26.296875 68.042969 29.074219 68.109375 31.617188 68.050781 C 36.609375 67.941406 40.683594 67.351562 43.773438 66.28125 C 44.226562 66.140625 44.710938 66.386719 44.863281 66.835938 C 45.019531 67.285156 44.792969 67.773438 44.347656 67.945312 C 43.9375 68.089844 43.507812 68.222656 43.066406 68.347656 C 40.632812 69.042969 37.816406 69.539062 34.453125 69.746094 C 34.339844 69.753906 34.136719 69.753906 34.019531 69.761719 C 32.695312 69.835938 31.28125 69.882812 29.820312 69.882812 C 28.222656 69.882812 26.589844 69.851562 24.832031 69.761719 C 30.9375 76.625 40.539062 80.753906 52.507812 80.753906 C 74.1875 80.753906 93.050781 72.523438 103.996094 54.34375 L 17.824219 54.34375 "/>
<path style=" stroke:none;fill-rule:evenodd;fill:rgb(11.372549%,56.862748%,70.588237%);fill-opacity:1;" d="M 22.683594 54.34375 C 23.980469 60.253906 27.09375 64.890625 31.617188 68.050781 C 36.609375 67.941406 40.683594 67.351562 43.773438 66.28125 C 44.226562 66.140625 44.710938 66.386719 44.863281 66.835938 C 45.019531 67.285156 44.792969 67.773438 44.347656 67.945312 C 43.9375 68.089844 43.507812 68.222656 43.066406 68.347656 C 40.632812 69.042969 37.757812 69.539062 34.394531 69.746094 C 43.011719 74.167969 55.472656 74.101562 69.796875 68.601562 C 78.464844 65.269531 86.808594 60.3125 94.289062 54.34375 L 22.683594 54.34375 "/>
<path style=" stroke:none;fill-rule:evenodd;fill:rgb(13.725491%,63.921571%,76.078433%);fill-opacity:1;" d="M 27.628906 35.023438 L 37.539062 35.023438 L 37.539062 44.929688 L 27.628906 44.929688 Z M 28.457031 35.847656 L 29.238281 35.847656 L 29.238281 44.105469 L 28.457031 44.105469 Z M 29.925781 35.847656 L 30.738281 35.847656 L 30.738281 44.105469 L 29.925781 44.105469 Z M 31.425781 35.847656 L 32.238281 35.847656 L 32.238281 44.105469 L 31.425781 44.105469 Z M 32.929688 35.847656 L 33.742188 35.847656 L 33.742188 44.105469 L 32.929688 44.105469 Z M 34.429688 35.847656 L 35.242188 35.847656 L 35.242188 44.105469 L 34.429688 44.105469 Z M 35.929688 35.847656 L 36.714844 35.847656 L 36.714844 44.105469 L 35.929688 44.105469 Z M 39.0625 23.589844 L 48.972656 23.589844 L 48.972656 33.496094 L 39.0625 33.496094 Z M 39.890625 24.414062 L 40.671875 24.414062 L 40.671875 32.671875 L 39.890625 32.671875 Z M 41.359375 24.414062 L 42.171875 24.414062 L 42.171875 32.671875 L 41.359375 32.671875 Z M 42.859375 24.414062 L 43.671875 24.414062 L 43.671875 32.671875 L 42.859375 32.671875 Z M 44.363281 24.414062 L 45.175781 24.414062 L 45.175781 32.671875 L 44.363281 32.671875 Z M 45.863281 24.414062 L 46.675781 24.414062 L 46.675781 32.671875 L 45.863281 32.671875 Z M 47.363281 24.414062 L 48.148438 24.414062 L 48.148438 32.671875 L 47.363281 32.671875 Z M 47.363281 24.414062 "/>
<path style=" stroke:none;fill-rule:evenodd;fill:rgb(20.392157%,73.333335%,87.058824%);fill-opacity:1;" d="M 39.0625 35.023438 L 48.972656 35.023438 L 48.972656 44.929688 L 39.0625 44.929688 Z M 39.890625 35.847656 L 40.671875 35.847656 L 40.671875 44.105469 L 39.890625 44.105469 Z M 41.359375 35.847656 L 42.171875 35.847656 L 42.171875 44.105469 L 41.359375 44.105469 Z M 42.859375 35.847656 L 43.671875 35.847656 L 43.671875 44.105469 L 42.859375 44.105469 Z M 44.363281 35.847656 L 45.175781 35.847656 L 45.175781 44.105469 L 44.363281 44.105469 Z M 45.863281 35.847656 L 46.675781 35.847656 L 46.675781 44.105469 L 45.863281 44.105469 Z M 47.363281 35.847656 L 48.148438 35.847656 L 48.148438 44.105469 L 47.363281 44.105469 Z M 47.363281 35.847656 "/>
<path style=" stroke:none;fill-rule:evenodd;fill:rgb(13.725491%,63.921571%,76.078433%);fill-opacity:1;" d="M 50.496094 35.023438 L 60.40625 35.023438 L 60.40625 44.929688 L 50.496094 44.929688 Z M 51.320312 35.847656 L 52.101562 35.847656 L 52.101562 44.105469 L 51.320312 44.105469 Z M 52.792969 35.847656 L 53.605469 35.847656 L 53.605469 44.105469 L 52.792969 44.105469 Z M 54.292969 35.847656 L 55.105469 35.847656 L 55.105469 44.105469 L 54.292969 44.105469 Z M 55.796875 35.847656 L 56.609375 35.847656 L 56.609375 44.105469 L 55.796875 44.105469 Z M 57.296875 35.847656 L 58.109375 35.847656 L 58.109375 44.105469 L 57.296875 44.105469 Z M 58.796875 35.847656 L 59.578125 35.847656 L 59.578125 44.105469 L 58.796875 44.105469 Z M 58.796875 35.847656 "/>
<path style=" stroke:none;fill-rule:evenodd;fill:rgb(20.392157%,73.333335%,87.058824%);fill-opacity:1;" d="M 50.496094 23.589844 L 60.40625 23.589844 L 60.40625 33.496094 L 50.496094 33.496094 Z M 51.320312 24.414062 L 52.101562 24.414062 L 52.101562 32.671875 L 51.320312 32.671875 Z M 52.792969 24.414062 L 53.605469 24.414062 L 53.605469 32.671875 L 52.792969 32.671875 Z M 54.292969 24.414062 L 55.105469 24.414062 L 55.105469 32.671875 L 54.292969 32.671875 Z M 55.796875 24.414062 L 56.609375 24.414062 L 56.609375 32.671875 L 55.796875 32.671875 Z M 57.296875 24.414062 L 58.109375 24.414062 L 58.109375 32.671875 L 57.296875 32.671875 Z M 58.796875 24.414062 L 59.578125 24.414062 L 59.578125 32.671875 L 58.796875 32.671875 Z M 61.929688 35.023438 L 71.839844 35.023438 L 71.839844 44.929688 L 61.929688 44.929688 Z M 62.753906 35.847656 L 63.535156 35.847656 L 63.535156 44.105469 L 62.753906 44.105469 Z M 64.226562 35.847656 L 65.039062 35.847656 L 65.039062 44.105469 L 64.226562 44.105469 Z M 65.726562 35.847656 L 66.539062 35.847656 L 66.539062 44.105469 L 65.726562 44.105469 Z M 67.226562 35.847656 L 68.042969 35.847656 L 68.042969 44.105469 L 67.226562 44.105469 Z M 68.730469 35.847656 L 69.542969 35.847656 L 69.542969 44.105469 L 68.730469 44.105469 Z M 70.230469 35.847656 L 71.011719 35.847656 L 71.011719 44.105469 L 70.230469 44.105469 Z M 70.230469 35.847656 "/>
<path style=" stroke:none;fill-rule:evenodd;fill:rgb(13.725491%,63.921571%,76.078433%);fill-opacity:1;" d="M 61.929688 23.589844 L 71.839844 23.589844 L 71.839844 33.496094 L 61.929688 33.496094 Z M 62.753906 24.414062 L 63.535156 24.414062 L 63.535156 32.671875 L 62.753906 32.671875 Z M 64.226562 24.414062 L 65.039062 24.414062 L 65.039062 32.671875 L 64.226562 32.671875 Z M 65.726562 24.414062 L 66.539062 24.414062 L 66.539062 32.671875 L 65.726562 32.671875 Z M 67.226562 24.414062 L 68.042969 24.414062 L 68.042969 32.671875 L 67.226562 32.671875 Z M 68.730469 24.414062 L 69.542969 24.414062 L 69.542969 32.671875 L 68.730469 32.671875 Z M 70.230469 24.414062 L 71.011719 24.414062 L 71.011719 32.671875 L 70.230469 32.671875 Z M 70.230469 24.414062 "/>
<path style=" stroke:none;fill-rule:evenodd;fill:rgb(20.392157%,73.333335%,87.058824%);fill-opacity:1;" d="M 61.929688 12.15625 L 71.839844 12.15625 L 71.839844 22.066406 L 61.929688 22.066406 Z M 62.753906 12.980469 L 63.535156 12.980469 L 63.535156 21.238281 L 62.753906 21.238281 Z M 64.226562 12.980469 L 65.039062 12.980469 L 65.039062 21.238281 L 64.226562 21.238281 Z M 65.726562 12.980469 L 66.539062 12.980469 L 66.539062 21.238281 L 65.726562 21.238281 Z M 67.226562 12.980469 L 68.042969 12.980469 L 68.042969 21.238281 L 67.226562 21.238281 Z M 68.730469 12.980469 L 69.542969 12.980469 L 69.542969 21.238281 L 68.730469 21.238281 Z M 70.230469 12.980469 L 71.011719 12.980469 L 71.011719 21.238281 L 70.230469 21.238281 Z M 70.230469 12.980469 "/>
<path style=" stroke:none;fill-rule:evenodd;fill:rgb(13.725491%,63.921571%,76.078433%);fill-opacity:1;" d="M 73.363281 35.023438 L 83.273438 35.023438 L 83.273438 44.929688 L 73.363281 44.929688 Z M 74.1875 35.847656 L 74.96875 35.847656 L 74.96875 44.105469 L 74.1875 44.105469 Z M 75.65625 35.847656 L 76.472656 35.847656 L 76.472656 44.105469 L 75.65625 44.105469 Z M 77.160156 35.847656 L 77.972656 35.847656 L 77.972656 44.105469 L 77.160156 44.105469 Z M 78.660156 35.847656 L 79.472656 35.847656 L 79.472656 44.105469 L 78.660156 44.105469 Z M 80.164062 35.847656 L 80.976562 35.847656 L 80.976562 44.105469 L 80.164062 44.105469 Z M 81.664062 35.847656 L 82.445312 35.847656 L 82.445312 44.105469 L 81.664062 44.105469 Z M 81.664062 35.847656 "/>
<path style=" stroke:none;fill-rule:evenodd;fill:rgb(82.745099%,92.54902%,92.54902%);fill-opacity:1;" d="M 48.351562 60.996094 C 49.335938 60.984375 50.253906 61.5 50.75 62.351562 C 51.246094 63.203125 51.246094 64.257812 50.75 65.109375 C 50.253906 65.960938 49.335938 66.476562 48.351562 66.464844 C 46.855469 66.441406 45.652344 65.226562 45.65625 63.730469 C 45.65625 62.234375 46.855469 61.015625 48.351562 60.996094 "/>
<path style=" stroke:none;fill-rule:evenodd;fill:rgb(21.176471%,27.058825%,28.235295%);fill-opacity:1;" d="M 48.351562 61.773438 C 48.601562 61.773438 48.839844 61.820312 49.058594 61.902344 C 48.75 62.085938 48.597656 62.453125 48.691406 62.800781 C 48.78125 63.148438 49.097656 63.394531 49.460938 63.394531 C 49.761719 63.394531 50.023438 63.226562 50.160156 62.976562 C 50.492188 63.773438 50.261719 64.695312 49.59375 65.242188 C 48.929688 65.789062 47.984375 65.835938 47.265625 65.355469 C 46.546875 64.878906 46.230469 63.988281 46.480469 63.160156 C 46.730469 62.335938 47.488281 61.773438 48.351562 61.773438 M 0 55.332031 L 127.164062 55.332031 C 124.394531 54.628906 118.402344 53.679688 119.390625 50.050781 C 114.355469 55.878906 102.214844 54.136719 99.152344 51.265625 C 95.738281 56.214844 75.875 54.332031 74.488281 50.476562 C 70.210938 55.5 56.953125 55.5 52.675781 50.476562 C 51.289062 54.332031 31.425781 56.214844 28.011719 51.265625 C 24.949219 54.136719 12.808594 55.878906 7.773438 50.050781 C 8.761719 53.679688 2.769531 54.628906 0 55.332031 "/>
<path style=" stroke:none;fill-rule:evenodd;fill:rgb(74.117649%,85.09804%,84.313726%);fill-opacity:1;" d="M 55.617188 80.695312 C 48.847656 77.484375 45.132812 73.113281 43.066406 68.347656 C 40.550781 69.066406 37.527344 69.523438 34.015625 69.722656 C 32.691406 69.796875 31.300781 69.832031 29.839844 69.832031 C 28.15625 69.832031 26.382812 69.785156 24.519531 69.683594 C 30.726562 75.890625 38.363281 80.667969 52.507812 80.753906 C 53.550781 80.753906 54.585938 80.734375 55.617188 80.695312 "/>
<path style=" stroke:none;fill-rule:evenodd;fill:rgb(82.745099%,92.54902%,92.54902%);fill-opacity:1;" d="M 45.578125 72.746094 C 44.644531 71.476562 43.734375 69.878906 43.066406 68.347656 C 40.550781 69.066406 37.527344 69.523438 34.015625 69.722656 C 36.429688 71.03125 39.878906 72.246094 45.582031 72.746094 "/>
</g>
</svg>
