<?xml version="1.0" encoding="UTF-8"?>
<svg xmlns="http://www.w3.org/2000/svg" xmlns:xlink="http://www.w3.org/1999/xlink" width="px" height="256px" viewBox="0 0 256 256" version="1.1">
<g id="surface1">
<path style=" stroke:none;fill-rule:nonzero;fill:rgb(88.235295%,0%,59.607846%);fill-opacity:1;" d="M 38.253906 181.972656 L 129.859375 23.3125 L 138.082031 28.058594 L 46.476562 186.722656 Z M 38.253906 181.972656 "/>
<path style=" stroke:none;fill-rule:nonzero;fill:rgb(88.235295%,0%,59.607846%);fill-opacity:1;" d="M 36.359375 169.296875 L 219.574219 169.296875 L 219.574219 178.792969 L 36.359375 178.792969 Z M 36.359375 169.296875 "/>
<path style=" stroke:none;fill-rule:nonzero;fill:rgb(88.235295%,0%,59.607846%);fill-opacity:1;" d="M 39.988281 174.628906 L 44.734375 166.40625 L 136.375 219.316406 L 131.625 227.539062 Z M 39.988281 174.628906 "/>
<path style=" stroke:none;fill-rule:nonzero;fill:rgb(88.235295%,0%,59.607846%);fill-opacity:1;" d="M 119.605469 36.730469 L 124.351562 28.507812 L 215.992188 81.414062 L 211.242188 89.640625 Z M 119.605469 36.730469 "/>
<path style=" stroke:none;fill-rule:nonzero;fill:rgb(88.235295%,0%,59.607846%);fill-opacity:1;" d="M 40.011719 81.390625 L 131.648438 28.480469 L 136.398438 36.703125 L 44.761719 89.613281 Z M 40.011719 81.390625 "/>
<path style=" stroke:none;fill-rule:nonzero;fill:rgb(88.235295%,0%,59.607846%);fill-opacity:1;" d="M 117.941406 28.058594 L 126.164062 23.3125 L 217.773438 181.972656 L 209.546875 186.722656 Z M 117.941406 28.058594 "/>
<path style=" stroke:none;fill-rule:nonzero;fill:rgb(88.235295%,0%,59.607846%);fill-opacity:1;" d="M 43.632812 75.089844 L 53.128906 75.089844 L 53.128906 180.910156 L 43.632812 180.910156 Z M 43.632812 75.089844 "/>
<path style=" stroke:none;fill-rule:nonzero;fill:rgb(88.235295%,0%,59.607846%);fill-opacity:1;" d="M 202.878906 75.089844 L 212.375 75.089844 L 212.375 180.910156 L 202.878906 180.910156 Z M 202.878906 75.089844 "/>
<path style=" stroke:none;fill-rule:nonzero;fill:rgb(88.235295%,0%,59.607846%);fill-opacity:1;" d="M 125.867188 216.335938 L 205.566406 170.320312 L 209.714844 177.503906 L 130.015625 223.523438 Z M 125.867188 216.335938 "/>
<path style=" stroke:none;fill-rule:nonzero;fill:rgb(88.235295%,0%,59.607846%);fill-opacity:1;" d="M 224.960938 184 C 219.449219 193.578125 207.210938 196.871094 197.636719 191.351562 C 188.0625 185.832031 184.78125 173.59375 190.304688 164.023438 C 195.832031 154.453125 208.074219 151.179688 217.640625 156.710938 C 227.1875 162.234375 230.460938 174.441406 224.960938 184 "/>
<path style=" stroke:none;fill-rule:nonzero;fill:rgb(88.235295%,0%,59.607846%);fill-opacity:1;" d="M 65.601562 92 C 60.085938 101.578125 47.851562 104.871094 38.277344 99.351562 C 28.703125 93.832031 25.417969 81.59375 30.945312 72.023438 C 36.472656 62.453125 48.714844 59.179688 58.28125 64.710938 C 67.828125 70.234375 71.101562 82.441406 65.601562 92 "/>
<path style=" stroke:none;fill-rule:nonzero;fill:rgb(88.235295%,0%,59.607846%);fill-opacity:1;" d="M 31.039062 184 C 25.507812 174.433594 28.78125 162.191406 38.351562 156.664062 C 47.921875 151.140625 60.160156 154.421875 65.679688 163.996094 C 71.199219 173.570312 67.90625 185.808594 58.328125 191.320312 C 48.769531 196.820312 36.5625 193.546875 31.039062 184 "/>
<path style=" stroke:none;fill-rule:nonzero;fill:rgb(88.235295%,0%,59.607846%);fill-opacity:1;" d="M 190.398438 92 C 184.867188 82.433594 188.140625 70.191406 197.710938 64.664062 C 207.28125 59.140625 219.519531 62.421875 225.039062 71.996094 C 230.558594 81.570312 227.265625 93.808594 217.6875 99.320312 C 208.128906 104.820312 195.921875 101.546875 190.398438 92 "/>
<path style=" stroke:none;fill-rule:nonzero;fill:rgb(88.235295%,0%,59.607846%);fill-opacity:1;" d="M 128 240 C 116.953125 240 108 231.046875 108 220 C 108 208.953125 116.953125 200 128 200 C 139.046875 200 148 208.953125 148 220 C 148.015625 225.308594 145.914062 230.40625 142.160156 234.160156 C 138.40625 237.914062 133.308594 240.015625 128 240 "/>
<path style=" stroke:none;fill-rule:nonzero;fill:rgb(88.235295%,0%,59.607846%);fill-opacity:1;" d="M 128 55.929688 C 116.953125 55.929688 108 46.972656 108 35.929688 C 108 24.882812 116.953125 15.929688 128 15.929688 C 139.046875 15.929688 148 24.882812 148 35.929688 C 148.015625 41.238281 145.914062 46.332031 142.160156 50.085938 C 138.40625 53.839844 133.308594 55.941406 128 55.929688 "/>
</g>
</svg>
