<?xml version="1.0" encoding="UTF-8"?>
<svg xmlns="http://www.w3.org/2000/svg" xmlns:xlink="http://www.w3.org/1999/xlink" width="px" height="256px" viewBox="0 0 256 256" version="1.1">
<g id="surface1">
<path style=" stroke:none;fill-rule:nonzero;fill:rgb(94.117647%,83.92157%,71.764708%);fill-opacity:1;" d="M 59.488281 113.710938 C 59.886719 113.355469 60.328125 113.050781 60.800781 112.800781 Z M 59.488281 113.710938 "/>
<path style=" stroke:none;fill-rule:nonzero;fill:rgb(94.117647%,83.92157%,71.764708%);fill-opacity:1;" d="M 83.296875 146.023438 C 83.777344 149.390625 85.214844 179.335938 105.425781 196.023438 C 109.53125 196.664062 113.667969 197.097656 117.816406 197.320312 C 120.054688 192.519531 128.3125 192.886719 133.695312 194.121094 C 126.945312 190.671875 121.011719 185.824219 116.289062 179.894531 C 110 174.40625 105.835938 166.890625 104.511719 158.648438 C 115.296875 173.609375 124.207031 186.648438 143.816406 193.257812 C 158.65625 198.230469 175.984375 190.976562 187.382812 182.96875 C 191.777344 179.15625 195.472656 174.609375 198.304688 169.527344 C 211.230469 148.957031 217.242188 124.789062 215.464844 100.558594 C 215.828125 91.203125 214.472656 81.859375 211.464844 72.992188 C 207.839844 65.726562 195.59375 59.230469 188.425781 65.792969 C 188.304688 65.144531 188.261719 64.484375 188.296875 63.824219 C 187.152344 64.894531 186.457031 65.679688 186.457031 65.679688 C 185.863281 64.464844 185.527344 63.136719 185.480469 61.785156 C 185.691406 55.246094 190.941406 49.996094 197.480469 49.785156 C 194.070312 45.140625 190.097656 40.941406 185.648438 37.28125 C 170.046875 31.949219 153.222656 31.332031 137.273438 35.503906 C 114.769531 40.339844 96.554688 56.804688 89.472656 78.703125 C 87.945312 84.644531 86.910156 90.699219 86.367188 96.808594 C 86.121094 103.878906 89.695312 110.046875 89.96875 117.742188 C 88.054688 120.894531 82.214844 121.289062 78.175781 121.070312 C 77.878906 119.574219 77.519531 118.039062 77.089844 116.542969 C 73.90625 114.769531 70.503906 113.425781 66.96875 112.542969 C 73.382812 115.167969 76.84375 122.15625 75.039062 128.847656 C 72.054688 127.144531 71.34375 119.648438 67.839844 119.433594 C 62.832031 119.128906 63.742188 129.160156 63.769531 135.03125 C 60.242188 129.789062 59.667969 123.097656 62.246094 117.328125 C 59.976562 116.214844 58.695312 117.816406 57.449219 119.0625 C 55.671875 127.351562 53.070312 134.046875 57.945312 142.425781 C 60.761719 145.699219 64.945312 147.472656 69.257812 147.222656 C 73.792969 146.777344 74.902344 142.230469 79.847656 142.28125 C 81.726562 142.578125 83.152344 144.128906 83.296875 146.023438 Z M 134.886719 161.601562 L 132.488281 161.113281 C 132.488281 161.113281 129.976562 152.3125 131.183594 150.664062 C 131.824219 149.808594 135.34375 148.519531 140.273438 150.886719 C 140.238281 150.894531 134.398438 151.871094 134.886719 161.601562 Z M 180.535156 172.328125 C 171.640625 175.34375 161.996094 175.304688 153.128906 172.214844 C 148.957031 169.160156 145.460938 165.273438 142.863281 160.800781 C 141.625 159.199219 135.449219 155.136719 142.769531 155.128906 C 148.503906 169.527344 168.207031 167.863281 184.824219 167.472656 C 184.058594 169.574219 182.527344 171.3125 180.535156 172.335938 Z M 182.9375 159.527344 C 182.558594 156.707031 182.558594 153.847656 182.9375 151.023438 C 191.355469 149.378906 199.386719 146.164062 206.617188 141.542969 C 202.9375 151.667969 193.667969 158.699219 182.929688 159.511719 Z M 204.984375 94.945312 C 203.519531 95.433594 194.023438 101.039062 194.761719 93.96875 C 195.519531 89.710938 198.75 86.316406 202.96875 85.351562 C 202.898438 84.285156 202.898438 83.21875 202.96875 82.152344 L 203.601562 82.152344 C 206.261719 88.484375 209.394531 94.609375 212.976562 100.472656 C 210.441406 106.375 193.777344 111.59375 194.046875 101 C 197.648438 99.398438 203.863281 100.679688 207.054688 98.671875 C 206.304688 96.617188 205.457031 94.671875 204.65625 92.625 Z M 163.488281 132.945312 C 164.585938 129.6875 165.929688 124.945312 168.238281 125.640625 C 170.546875 126.28125 172.167969 128.351562 172.238281 130.742188 C 169.546875 132.488281 167.007812 134.464844 164.65625 136.648438 C 165.175781 139.046875 165.808594 141.449219 168.839844 141.992188 C 177.6875 143.503906 187.984375 136.574219 194.351562 134.160156 C 198.296875 127.503906 194.007812 125.054688 190.457031 120.777344 C 183.175781 111.976562 173.414062 101.128906 173.769531 87.976562 C 176.710938 85.839844 176.96875 91.230469 177.382812 92.214844 C 182.785156 102.445312 189.636719 111.835938 197.726562 120.105469 C 199.441406 121.976562 202.265625 123.777344 202.574219 125.015625 C 203.480469 128.625 200.222656 132.945312 200.601562 135.335938 C 190.464844 143.316406 177.75 147.300781 164.871094 146.535156 C 161.136719 142.953125 160.542969 137.191406 163.472656 132.921875 Z M 179.152344 151.511719 C 179.660156 154.3125 179.863281 157.15625 179.761719 160 C 165.273438 160.71875 148.144531 157.136719 144.34375 146.96875 C 155.484375 150.960938 167.355469 152.5 179.144531 151.488281 Z M 145.105469 82.328125 C 146.964844 87.570312 149.597656 92.5 152.921875 96.960938 C 154.742188 98.734375 158.28125 100.894531 156.527344 105.832031 C 155.289062 107.742188 153.496094 109.234375 151.390625 110.105469 C 145.070312 111.96875 130.34375 110.488281 135.328125 102.609375 C 140.550781 102.847656 147.585938 106 151.488281 102.207031 C 150.726562 100.992188 149.816406 99.480469 148.910156 97.800781 C 144.910156 100.328125 133.921875 100.441406 133.921875 93.96875 C 133.921875 87.152344 144.632812 85.695312 144.632812 85.695312 L 144.710938 85.886719 C 144.59375 84.679688 144.722656 83.460938 145.097656 82.304688 Z M 119.3125 58.902344 C 128.871094 52.382812 133.710938 56.105469 136.113281 60.40625 C 137.367188 60.902344 138.335938 61.929688 138.757812 63.207031 C 139.179688 64.484375 139.015625 65.886719 138.304688 67.03125 C 125.039062 63.945312 118.449219 72.585938 114.425781 81.542969 C 113.390625 83.414062 113.335938 82.089844 112.742188 80.457031 C 109.601562 76.425781 108.601562 66.207031 119.3125 58.902344 Z M 119.3125 58.902344 "/>
<path style=" stroke:none;fill-rule:nonzero;fill:rgb(20%,31.37255%,38.039216%);fill-opacity:1;" d="M 50.265625 234.238281 L 120.289062 234.238281 C 119.96875 233.160156 119.65625 232.097656 119.34375 231.089844 C 117.648438 226.007812 116.375 220.792969 115.535156 215.503906 C 106.949219 211.785156 98.691406 207.355469 90.839844 202.265625 C 90.148438 201.628906 89.507812 200.941406 88.921875 200.207031 L 46.792969 219.03125 C 46.792969 219.03125 48.304688 225.0625 50.265625 234.238281 Z M 50.265625 234.238281 "/>
<path style=" stroke:none;fill-rule:nonzero;fill:rgb(42.745098%,41.960785%,42.745098%);fill-opacity:1;" d="M 75.464844 56 C 76.679688 55.625 77.933594 55.390625 79.199219 55.296875 C 81.179688 55.570312 83.179688 55.644531 85.175781 55.527344 C 89.128906 54.542969 92.472656 45.679688 95.457031 42.375 C 97.851562 40.171875 100.363281 38.101562 102.984375 36.167969 C 92.0625 39.929688 82.488281 46.828125 75.464844 56 Z M 75.464844 56 "/>
<path style=" stroke:none;fill-rule:nonzero;fill:rgb(42.745098%,41.960785%,42.745098%);fill-opacity:1;" d="M 57.414062 100.6875 C 62.550781 97.972656 68.707031 98.039062 73.785156 100.859375 C 78.859375 103.679688 82.167969 108.871094 82.574219 114.664062 C 88.128906 114.519531 84.648438 107.734375 83.648438 103.359375 C 80.695312 90.496094 87.542969 76.640625 85.183594 64.472656 C 54.257812 69.097656 56 92.847656 57.414062 100.6875 Z M 57.414062 100.6875 "/>
<path style=" stroke:none;fill-rule:nonzero;fill:rgb(86.274511%,85.09804%,84.705883%);fill-opacity:1;" d="M 105.992188 30.808594 C 91.433594 34.9375 72.777344 45.511719 66.792969 58.59375 C 69.746094 57.949219 72.644531 57.085938 75.464844 56 C 82.488281 46.828125 92.0625 39.929688 102.984375 36.167969 C 103.4375 35.753906 103.863281 35.3125 104.257812 34.839844 C 105.792969 34.097656 108.0625 34.152344 108.152344 31.839844 C 107.488281 31.128906 106.785156 30.585938 105.992188 30.808594 Z M 105.992188 30.808594 "/>
<path style=" stroke:none;fill-rule:nonzero;fill:rgb(86.274511%,85.09804%,84.705883%);fill-opacity:1;" d="M 60 71.878906 C 53.601562 78.960938 54.910156 92.214844 55.695312 101.648438 C 56.257812 101.296875 56.84375 100.976562 57.441406 100.6875 C 56 92.855469 54.289062 69.097656 85.207031 64.472656 C 84.949219 63.125 84.570312 61.804688 84.070312 60.527344 C 74.875 61.023438 66.234375 65.097656 60 71.878906 Z M 60 71.878906 "/>
<path style=" stroke:none;fill-rule:nonzero;fill:rgb(96.862745%,89.411765%,80.392158%);fill-opacity:1;" d="M 83.296875 146.023438 C 83.160156 144.15625 81.777344 142.613281 79.9375 142.28125 C 82.617188 147.625 75.808594 149.304688 75.136719 153.121094 C 75.222656 155.367188 75.558594 157.601562 76.136719 159.777344 C 78.507812 169.316406 82.410156 178.40625 87.695312 186.695312 C 92.089844 192.105469 98.507812 195.476562 105.457031 196.023438 C 85.214844 179.34375 83.777344 149.390625 83.296875 146.023438 Z M 83.296875 146.023438 "/>
<path style=" stroke:none;fill-rule:nonzero;fill:rgb(96.862745%,89.411765%,80.392158%);fill-opacity:1;" d="M 172.199219 130.703125 C 172.125 128.3125 170.507812 126.242188 168.199219 125.601562 C 165.886719 124.945312 164.542969 129.648438 163.816406 133.703125 C 164.160156 134.648438 164.425781 135.621094 164.617188 136.609375 C 166.96875 134.421875 169.503906 132.449219 172.199219 130.703125 Z M 172.199219 130.703125 "/>
<path style=" stroke:none;fill-rule:nonzero;fill:rgb(96.862745%,89.411765%,80.392158%);fill-opacity:1;" d="M 194.753906 93.953125 C 194.015625 101.023438 203.550781 95.414062 204.976562 94.929688 L 204.632812 92.640625 C 203.722656 90.300781 203.160156 87.839844 202.960938 85.335938 C 198.742188 86.300781 195.511719 89.695312 194.753906 93.953125 Z M 194.753906 93.953125 "/>
<path style=" stroke:none;fill-rule:nonzero;fill:rgb(96.862745%,89.411765%,80.392158%);fill-opacity:1;" d="M 133.910156 93.953125 C 133.910156 100.425781 144.878906 100.3125 148.902344 97.785156 C 146.738281 94.128906 145.308594 90.078125 144.703125 85.871094 L 144.625 85.679688 C 144.625 85.679688 133.910156 87.136719 133.910156 93.953125 Z M 133.910156 93.953125 "/>
<path style=" stroke:none;fill-rule:nonzero;fill:rgb(96.862745%,89.411765%,80.392158%);fill-opacity:1;" d="M 57.535156 119.078125 C 57.234375 119.40625 56.898438 119.695312 56.535156 119.953125 C 56.726562 117.578125 57.78125 115.355469 59.496094 113.703125 C 62.757812 111.847656 65.027344 111.753906 67.054688 112.542969 C 70.589844 113.425781 73.992188 114.769531 77.175781 116.542969 C 75.632812 111.230469 72.984375 106.441406 67.511719 105.839844 C 63.070312 105.472656 58.667969 106.945312 55.34375 109.914062 C 52.015625 112.882812 50.050781 117.085938 49.910156 121.542969 C 49.914062 129.265625 52.8125 136.707031 58.03125 142.398438 C 53.152344 134.0625 55.761719 127.367188 57.535156 119.078125 Z M 57.535156 119.078125 "/>
<path style=" stroke:none;fill-rule:nonzero;fill:rgb(96.862745%,89.411765%,80.392158%);fill-opacity:1;" d="M 137.320312 35.542969 C 153.269531 31.371094 170.09375 31.988281 185.695312 37.320312 C 184.453125 36.351562 183.144531 35.46875 181.777344 34.6875 C 166.664062 26.160156 141.089844 19.753906 124.976562 27.761719 C 112.007812 34.222656 94.472656 44.929688 88.496094 58.488281 C 90.949219 64.96875 91.296875 72.058594 89.480469 78.742188 C 96.570312 56.835938 114.804688 40.367188 137.320312 35.542969 Z M 137.320312 35.542969 "/>
<path style=" stroke:none;fill-rule:nonzero;fill:rgb(96.862745%,89.411765%,80.392158%);fill-opacity:1;" d="M 185.503906 61.824219 C 185.554688 63.175781 185.886719 64.503906 186.480469 65.71875 C 186.480469 65.71875 187.175781 64.921875 188.320312 63.863281 C 188.566406 57.992188 195.238281 54.648438 202.976562 56.9375 C 201.199219 54.648438 199.398438 52.222656 197.527344 49.824219 C 190.980469 50.023438 185.714844 55.277344 185.503906 61.824219 Z M 185.503906 61.824219 "/>
<path style=" stroke:none;fill-rule:nonzero;fill:rgb(96.862745%,89.411765%,80.392158%);fill-opacity:1;" d="M 112.734375 80.464844 C 113.328125 82.0625 113.390625 83.425781 114.414062 81.550781 Z M 112.734375 80.464844 "/>
<path style=" stroke:none;fill-rule:nonzero;fill:rgb(96.862745%,89.411765%,80.392158%);fill-opacity:1;" d="M 112.257812 79.375 C 112.023438 77.308594 112.339844 75.21875 113.167969 73.3125 C 116.460938 65.183594 124.171875 59.707031 132.929688 59.273438 C 134.054688 59.449219 135.140625 59.839844 136.128906 60.414062 C 133.726562 56.113281 128.929688 52.414062 119.328125 58.910156 C 108.625 66.214844 109.59375 76.433594 111.542969 78.382812 Z M 112.257812 79.375 "/>
<path style=" stroke:none;fill-rule:nonzero;fill:rgb(28.627452%,44.705883%,54.509807%);fill-opacity:1;" d="M 46.792969 219.03125 L 88.921875 200.207031 C 85.832031 196.625 80.289062 189.808594 79.320312 190.152344 C 63.152344 197.339844 48.046875 206.722656 34.441406 218.03125 C 36.890625 223.3125 39.054688 228.726562 40.921875 234.238281 L 50.265625 234.238281 C 48.304688 225.0625 46.792969 219.03125 46.792969 219.03125 Z M 46.792969 219.03125 "/>
<path style=" stroke:none;fill-rule:nonzero;fill:rgb(20%,31.37255%,38.039216%);fill-opacity:1;" d="M 216 234.457031 C 217.742188 229.046875 219.203125 223.550781 220.382812 217.992188 C 220.671875 216.542969 221.230469 214.191406 221.632812 211.945312 L 198.542969 194.792969 C 202.992188 204.648438 203.367188 215.863281 199.585938 225.992188 C 200.382812 228.96875 203.214844 230.113281 204.382812 232.792969 C 204.113281 233.273438 203.839844 233.742188 203.585938 234.222656 L 215.390625 234.222656 Z M 216 234.457031 "/>
<path style=" stroke:none;fill-rule:nonzero;fill:rgb(20%,31.37255%,38.039216%);fill-opacity:1;" d="M 195.527344 224.59375 C 196.179688 223.675781 196.648438 222.640625 196.902344 221.542969 C 196.648438 222.640625 196.179688 223.675781 195.527344 224.59375 Z M 195.527344 224.59375 "/>
<path style=" stroke:none;fill-rule:nonzero;fill:rgb(20%,31.37255%,38.039216%);fill-opacity:1;" d="M 188.9375 191.566406 C 190.199219 190.902344 191.625 190.609375 193.046875 190.71875 L 191.144531 189.304688 C 190.308594 189.953125 189.566406 190.714844 188.9375 191.566406 Z M 188.9375 191.566406 "/>
<path style=" stroke:none;fill-rule:nonzero;fill:rgb(28.627452%,44.705883%,54.509807%);fill-opacity:1;" d="M 222.046875 207.03125 C 221.457031 202.734375 215.648438 199.550781 212.671875 196.902344 C 207.199219 192 203.777344 187.679688 198.089844 183.097656 C 196.058594 185.464844 193.71875 187.550781 191.136719 189.304688 L 193.039062 190.71875 C 195.421875 191.113281 197.46875 192.632812 198.527344 194.800781 L 221.601562 211.945312 C 221.964844 210.332031 222.117188 208.683594 222.046875 207.03125 Z M 222.046875 207.03125 "/>
<path style=" stroke:none;fill-rule:nonzero;fill:rgb(100%,100%,100%);fill-opacity:1;" d="M 164.574219 233.601562 L 168.480469 234.207031 C 168.480469 232.738281 169.671875 231.542969 171.144531 231.542969 C 172.617188 231.542969 173.808594 232.738281 173.808594 234.207031 L 180 234.207031 L 180 233.96875 C 177.808594 232.816406 173.015625 230.328125 170.398438 229.222656 C 167.007812 227.800781 164.574219 233.601562 164.574219 233.601562 Z M 164.574219 233.601562 "/>
<path style=" stroke:none;fill-rule:nonzero;fill:rgb(86.274511%,85.09804%,84.705883%);fill-opacity:1;" d="M 164.574219 233.601562 C 164.574219 233.601562 166.976562 227.761719 170.414062 229.214844 C 172.992188 230.320312 177.785156 232.808594 180.015625 233.960938 C 180.097656 232.199219 180.175781 230.441406 180.289062 228.679688 C 175.34375 228.992188 172.601562 224.207031 169.136719 223.839844 C 166.113281 223.511719 163.535156 227.320312 159.617188 225.671875 C 158.710938 226.664062 157.894531 227.742188 156.976562 228.71875 C 158.402344 230.457031 159.707031 232.289062 160.886719 234.199219 L 164.695312 234.199219 Z M 164.574219 233.601562 "/>
<path style=" stroke:none;fill-rule:nonzero;fill:rgb(100%,100%,100%);fill-opacity:1;" d="M 116.089844 201.351562 C 109.898438 201.335938 103.757812 200.253906 97.9375 198.152344 C 103.523438 203.882812 109.292969 205.441406 115.191406 206.144531 C 115.769531 204.613281 116.070312 202.988281 116.089844 201.351562 Z M 116.089844 201.351562 "/>
<path style=" stroke:none;fill-rule:nonzero;fill:rgb(86.274511%,85.09804%,84.705883%);fill-opacity:1;" d="M 114.855469 208.550781 C 114.867188 207.742188 114.976562 206.933594 115.183594 206.152344 C 109.285156 205.449219 103.515625 203.890625 98.0625 201.527344 C 102.917969 205.355469 108.722656 207.785156 114.855469 208.550781 Z M 114.855469 208.550781 "/>
<path style=" stroke:none;fill-rule:nonzero;fill:rgb(82.745099%,21.960784%,20%);fill-opacity:1;" d="M 196.902344 221.542969 C 197.441406 219.265625 197.636719 216.921875 197.488281 214.585938 C 197.320312 210.867188 196.785156 207.171875 195.886719 203.558594 C 193.195312 203.234375 190.464844 203.367188 187.816406 203.953125 C 185.414062 204.441406 182.945312 204.929688 182.464844 207.847656 C 181.984375 210.769531 183.441406 212.230469 181.976562 214.664062 C 180.511719 217.097656 178.078125 215.640625 175.648438 217.0625 C 173.992188 218.054688 175.039062 220.625 175.878906 222.167969 C 182.339844 223.636719 188.929688 224.441406 195.550781 224.566406 C 196.191406 223.65625 196.652344 222.628906 196.902344 221.542969 Z M 196.902344 221.542969 "/>
<path style=" stroke:none;fill-rule:nonzero;fill:rgb(82.745099%,21.960784%,20%);fill-opacity:1;" d="M 124.496094 233.753906 C 124.625 234.097656 124.761719 234.457031 124.871094 234.777344 C 124.984375 235.097656 125.105469 235.519531 125.207031 235.886719 L 125.136719 234.953125 Z M 124.496094 233.753906 "/>
<path style=" stroke:none;fill-rule:nonzero;fill:rgb(82.745099%,21.960784%,20%);fill-opacity:1;" d="M 156.503906 223.398438 C 156.558594 221.992188 156.613281 220.585938 156.671875 219.183594 C 154.128906 219.96875 151.382812 219.757812 148.992188 218.59375 C 141.496094 214.503906 148.59375 215.710938 145.9375 210.289062 C 142.898438 208.671875 139.570312 207.679688 136.144531 207.367188 C 126.320312 207.367188 122.542969 205.390625 123.601562 216.71875 C 124.152344 222.800781 124.648438 228.871094 125.128906 234.960938 C 125.929688 236.464844 126.648438 237.816406 127.222656 238.960938 C 132.363281 238.460938 137.347656 236.941406 141.886719 234.488281 C 146.957031 231.0625 151.835938 227.359375 156.503906 223.398438 Z M 156.503906 223.398438 "/>
<path style=" stroke:none;fill-rule:nonzero;fill:rgb(82.745099%,21.960784%,20%);fill-opacity:1;" d="M 160.214844 217.601562 C 160.382812 218.3125 160.558594 219.113281 160.726562 220.078125 C 162.699219 221.140625 165.113281 220.921875 166.863281 219.527344 C 168.617188 218.132812 169.367188 215.828125 168.777344 213.667969 C 168.1875 211.511719 166.367188 209.910156 164.152344 209.601562 C 164.699219 212.835938 163.113281 216.058594 160.214844 217.601562 Z M 160.214844 217.601562 "/>
<path style=" stroke:none;fill-rule:nonzero;fill:rgb(93.725491%,23.921569%,22.745098%);fill-opacity:1;" d="M 175.625 217.097656 C 178.023438 215.632812 180.496094 217.097656 181.953125 214.695312 C 183.40625 212.296875 181.953125 210.800781 182.441406 207.878906 C 182.929688 204.960938 185.359375 204.472656 187.792969 203.984375 C 190.441406 203.398438 193.171875 203.265625 195.863281 203.59375 C 195.550781 201.589844 194.570312 199.75 193.078125 198.375 C 187.105469 194.886719 176.632812 204.976562 171.761719 207.121094 L 171.304688 207.304688 C 172.027344 208.699219 172.5 210.210938 172.703125 211.769531 C 173.78125 211.5 174.890625 211.386719 176 211.433594 C 176.742188 211.460938 177.480469 211.550781 178.207031 211.695312 C 178.566406 211.769531 178.921875 211.855469 179.273438 211.953125 C 179.941406 212.140625 180.589844 212.386719 181.214844 212.6875 C 179.175781 212.769531 177.148438 213.039062 175.160156 213.488281 C 174.589844 213.65625 174.050781 213.910156 173.558594 214.246094 C 173.339844 216.640625 173.246094 219.042969 173.28125 221.449219 C 174.121094 221.6875 174.980469 221.910156 175.855469 222.121094 C 175.015625 220.65625 173.96875 218.089844 175.625 217.097656 Z M 175.625 217.097656 "/>
<path style=" stroke:none;fill-rule:nonzero;fill:rgb(93.725491%,23.921569%,22.745098%);fill-opacity:1;" d="M 125.207031 235.878906 C 125.617188 237.34375 125.96875 238.664062 127.230469 238.960938 C 126.65625 237.808594 125.929688 236.457031 125.136719 234.960938 Z M 125.207031 235.878906 "/>
<path style=" stroke:none;fill-rule:nonzero;fill:rgb(93.725491%,23.921569%,22.745098%);fill-opacity:1;" d="M 123.601562 216.710938 C 122.566406 205.382812 126.320312 207.359375 136.144531 207.359375 C 139.570312 207.671875 142.898438 208.664062 145.9375 210.28125 C 148.59375 215.703125 141.496094 214.496094 148.992188 218.585938 C 151.382812 219.75 154.128906 219.960938 156.671875 219.175781 L 156.671875 218.671875 C 154.367188 217.515625 151.894531 216.730469 149.34375 216.351562 C 148.359375 216.203125 147.371094 216.105469 146.375 216.0625 C 147.121094 215.703125 147.902344 215.421875 148.703125 215.214844 C 151.214844 214.820312 153.65625 214.0625 155.953125 212.96875 C 155.953125 212.335938 156 211.703125 156.023438 211.078125 C 155.488281 211.035156 154.953125 210.964844 154.425781 210.863281 C 153.945312 210.773438 153.472656 210.65625 153.007812 210.511719 C 152.191406 210.253906 151.402344 209.914062 150.65625 209.496094 C 149.230469 208.695312 148.007812 207.769531 146.457031 206.921875 C 140.402344 203.671875 133.914062 201.296875 127.191406 199.871094 C 119.824219 198.464844 119.761719 208.710938 120.070312 216.265625 C 120.070312 217.0625 120.136719 217.800781 120.175781 218.503906 C 120.855469 223.761719 122.320312 228.886719 124.527344 233.703125 L 125.160156 234.902344 C 124.65625 228.871094 124.152344 222.792969 123.601562 216.710938 Z M 123.601562 216.710938 "/>
<path style=" stroke:none;fill-rule:nonzero;fill:rgb(93.725491%,23.921569%,22.745098%);fill-opacity:1;" d="M 164.160156 209.601562 C 162.480469 209.636719 160.851562 210.195312 159.503906 211.199219 C 159.390625 212.296875 159.40625 213.402344 159.558594 214.496094 C 159.648438 215.128906 159.785156 215.734375 159.945312 216.398438 L 160.191406 217.449219 L 160.191406 217.585938 C 163.09375 216.054688 164.695312 212.839844 164.160156 209.601562 Z M 164.160156 209.601562 "/>
<path style=" stroke:none;fill-rule:nonzero;fill:rgb(13.725491%,12.156863%,12.54902%);fill-opacity:1;" d="M 113.167969 73.3125 C 112.339844 75.21875 112.023438 77.308594 112.257812 79.375 C 118.425781 72.59375 125.039062 63.953125 138.304688 67.039062 C 139.015625 65.894531 139.179688 64.496094 138.757812 63.214844 C 138.335938 61.9375 137.367188 60.910156 136.113281 60.414062 C 135.125 59.839844 134.039062 59.449219 132.910156 59.273438 C 124.160156 59.714844 116.457031 65.191406 113.167969 73.3125 Z M 113.167969 73.3125 "/>
<path style=" stroke:none;fill-rule:nonzero;fill:rgb(13.725491%,12.156863%,12.54902%);fill-opacity:1;" d="M 194.015625 101.015625 C 193.761719 111.609375 210.40625 106.390625 212.945312 100.488281 C 209.363281 94.625 206.230469 88.5 203.566406 82.167969 L 202.9375 82.167969 C 202.867188 83.234375 202.867188 84.300781 202.9375 85.367188 C 203.136719 87.871094 203.699219 90.332031 204.609375 92.671875 C 205.367188 94.71875 206.246094 96.671875 207.007812 98.71875 C 203.832031 100.695312 197.601562 99.441406 194.015625 101.015625 Z M 194.015625 101.015625 "/>
<path style=" stroke:none;fill-rule:nonzero;fill:rgb(13.725491%,12.156863%,12.54902%);fill-opacity:1;" d="M 151.472656 102.183594 C 147.566406 105.976562 140.535156 102.824219 135.3125 102.585938 C 130.328125 110.464844 145.054688 111.945312 151.375 110.078125 C 153.480469 109.210938 155.273438 107.71875 156.511719 105.808594 C 158.265625 100.871094 154.726562 98.710938 152.902344 96.9375 C 149.582031 92.476562 146.949219 87.542969 145.089844 82.304688 C 144.71875 83.453125 144.582031 84.664062 144.695312 85.863281 C 145.300781 90.070312 146.730469 94.117188 148.894531 97.777344 C 149.808594 99.457031 150.710938 100.96875 151.472656 102.183594 Z M 151.472656 102.183594 "/>
<path style=" stroke:none;fill-rule:nonzero;fill:rgb(13.725491%,12.156863%,12.54902%);fill-opacity:1;" d="M 164.839844 146.519531 C 177.71875 147.285156 190.429688 143.300781 200.566406 135.320312 C 200.191406 132.921875 203.449219 128.601562 202.542969 125 C 202.230469 123.761719 199.40625 121.960938 197.695312 120.089844 C 189.605469 111.820312 182.753906 102.425781 177.351562 92.199219 C 176.929688 91.214844 176.671875 85.800781 173.734375 87.960938 C 173.382812 101.097656 183.144531 111.960938 190.425781 120.761719 C 193.976562 125.039062 198.265625 127.488281 194.320312 134.144531 C 187.921875 136.542969 177.65625 143.496094 168.808594 141.976562 C 165.777344 141.457031 165.144531 139.054688 164.625 136.632812 C 164.433594 135.644531 164.167969 134.671875 163.824219 133.726562 C 160.535156 137.1875 161.121094 142.933594 164.839844 146.519531 Z M 164.839844 146.519531 "/>
<path style=" stroke:none;fill-rule:nonzero;fill:rgb(13.725491%,12.156863%,12.54902%);fill-opacity:1;" d="M 60.800781 112.800781 C 60.34375 113.046875 59.914062 113.34375 59.527344 113.6875 C 57.8125 115.339844 56.761719 117.5625 56.566406 119.9375 C 56.929688 119.679688 57.265625 119.386719 57.566406 119.0625 C 58.792969 117.816406 60.070312 116.207031 62.367188 117.328125 C 59.789062 123.097656 60.363281 129.789062 63.886719 135.03125 C 63.886719 129.167969 62.953125 119.136719 67.960938 119.433594 C 71.464844 119.648438 72.175781 127.144531 75.160156 128.847656 C 76.945312 122.144531 73.457031 115.160156 67.023438 112.558594 C 65.003906 111.777344 62.753906 111.863281 60.800781 112.800781 Z M 60.800781 112.800781 "/>
<path style=" stroke:none;fill-rule:nonzero;fill:rgb(13.725491%,12.156863%,12.54902%);fill-opacity:1;" d="M 182.945312 151 C 182.566406 153.820312 182.566406 156.683594 182.945312 159.503906 C 193.695312 158.691406 202.96875 151.648438 206.640625 141.511719 C 199.40625 146.136719 191.367188 149.355469 182.945312 151 Z M 182.945312 151 "/>
<path style=" stroke:none;fill-rule:nonzero;fill:rgb(13.725491%,12.156863%,12.54902%);fill-opacity:1;" d="M 179.761719 160 C 179.863281 157.144531 179.65625 154.285156 179.144531 151.472656 C 167.355469 152.492188 155.484375 150.960938 144.34375 146.976562 C 148.144531 157.152344 165.273438 160.734375 179.761719 160 Z M 179.761719 160 "/>
<path style=" stroke:none;fill-rule:nonzero;fill:rgb(13.725491%,12.156863%,12.54902%);fill-opacity:1;" d="M 142.769531 155.121094 C 135.449219 155.121094 141.625 159.199219 142.863281 160.792969 C 145.460938 165.269531 148.960938 169.15625 153.136719 172.214844 C 162.003906 175.304688 171.652344 175.34375 180.542969 172.328125 C 182.535156 171.300781 184.066406 169.5625 184.832031 167.457031 C 168.207031 167.855469 148.503906 169.511719 142.769531 155.121094 Z M 142.769531 155.121094 "/>
<path style=" stroke:none;fill-rule:nonzero;fill:rgb(50.588238%,69.01961%,76.862746%);fill-opacity:1;" d="M 199.679688 234.238281 C 197.792969 231.222656 194.800781 229.0625 191.34375 228.214844 C 188.855469 227.714844 186.273438 228.050781 184 229.175781 C 183.9375 230.777344 183.855469 232.496094 183.753906 234.230469 Z M 199.679688 234.238281 "/>
<path style=" stroke:none;fill-rule:nonzero;fill:rgb(94.117647%,83.92157%,71.764708%);fill-opacity:1;" d="M 175.769531 197.992188 C 170.28125 198.480469 163.824219 200.976562 157.753906 201.34375 C 157.199219 201.34375 156.648438 201.390625 156.105469 201.390625 C 155.558594 201.390625 155.015625 201.390625 154.503906 201.3125 C 153.441406 201.21875 152.390625 201.015625 151.367188 200.703125 C 150.855469 200.546875 150.355469 200.359375 149.863281 200.144531 C 149.863281 200.558594 149.296875 200.40625 149.207031 200.753906 C 149.886719 201.28125 150.542969 201.761719 151.183594 202.183594 C 151.824219 202.609375 152.457031 202.984375 153.089844 203.328125 C 154.292969 203.980469 155.566406 204.488281 156.886719 204.847656 C 159.023438 205.382812 161.21875 205.625 163.414062 205.566406 C 164.214844 205.566406 165.113281 205.566406 166.03125 205.496094 C 169.351562 203.070312 172.296875 200.246094 175.769531 197.992188 Z M 175.769531 197.992188 "/>
<path style=" stroke:none;fill-rule:nonzero;fill:rgb(50.588238%,69.01961%,76.862746%);fill-opacity:1;" d="M 152.6875 232.382812 L 149.878906 234.246094 L 154.097656 234.246094 C 153.636719 233.613281 153.167969 232.992188 152.6875 232.382812 Z M 152.6875 232.382812 "/>
<path style=" stroke:none;fill-rule:nonzero;fill:rgb(13.725491%,12.156863%,12.54902%);fill-opacity:1;" d="M 37.449219 238.152344 L 37.449219 235.472656 L 40.9375 234.246094 C 39.070312 228.734375 36.90625 223.320312 34.457031 218.039062 C 48.066406 206.730469 63.167969 197.347656 79.335938 190.160156 C 80.28125 189.785156 85.824219 196.632812 88.9375 200.214844 C 89.523438 200.949219 90.164062 201.636719 90.855469 202.273438 C 98.707031 207.363281 106.96875 211.792969 115.550781 215.511719 C 116.390625 220.800781 117.664062 226.015625 119.359375 231.097656 C 119.671875 232.105469 119.984375 233.175781 120.304688 234.246094 L 121.601562 234.246094 L 122.824219 236.734375 L 123.9375 236.734375 L 125.160156 240 L 138.6875 240 L 138.6875 237.960938 L 146.152344 236.734375 L 146.152344 235.472656 L 149.910156 234.246094 L 152.71875 232.382812 C 153.199219 232.992188 153.667969 233.613281 154.128906 234.246094 L 160.871094 234.246094 C 159.691406 232.335938 158.382812 230.503906 156.960938 228.769531 C 157.878906 227.792969 158.695312 226.71875 159.601562 225.71875 C 163.535156 227.367188 166.097656 223.558594 169.121094 223.886719 C 172.585938 224.257812 175.328125 229.039062 180.273438 228.726562 C 180.160156 230.488281 180.078125 232.246094 180 234.007812 L 180 234.246094 L 183.792969 234.246094 C 183.886719 232.511719 183.976562 230.816406 184.039062 229.191406 C 186.3125 228.066406 188.898438 227.730469 191.382812 228.230469 C 194.839844 229.078125 197.832031 231.238281 199.71875 234.257812 L 203.566406 234.257812 C 203.839844 233.777344 204.121094 233.304688 204.367188 232.824219 C 203.222656 230.144531 200.40625 229.007812 199.566406 226.023438 C 203.351562 215.894531 202.976562 204.679688 198.527344 194.824219 C 197.46875 192.65625 195.421875 191.136719 193.039062 190.742188 C 191.617188 190.632812 190.191406 190.929688 188.929688 191.59375 C 189.554688 190.742188 190.296875 189.980469 191.128906 189.328125 C 193.710938 187.578125 196.046875 185.488281 198.078125 183.121094 C 203.777344 187.703125 207.207031 192.015625 212.671875 196.921875 C 215.632812 199.574219 221.472656 202.761719 222.046875 207.046875 C 222.121094 208.695312 221.976562 210.347656 221.617188 211.960938 C 221.207031 214.207031 220.65625 216.558594 220.367188 218.007812 C 219.191406 223.5625 217.734375 229.050781 216 234.457031 L 216.574219 240 L 219.519531 240 C 221.585938 233.535156 223.609375 226.921875 225.648438 220.089844 C 227.972656 214.535156 229.269531 208.609375 229.472656 202.59375 C 228.847656 197.65625 221.152344 192.472656 217.097656 188.558594 C 214.847656 186.390625 204.351562 178.425781 203.742188 175.441406 C 203.136719 172.457031 208.023438 166.015625 209.59375 162.753906 C 211.632812 158.125 213.292969 153.34375 214.558594 148.449219 C 222.816406 119.433594 223.65625 79.558594 211.847656 55.710938 C 205.351562 45.113281 196.941406 35.8125 187.046875 28.289062 C 168.648438 14.351562 134.542969 12.808594 112.335938 20.984375 C 106.257812 22.960938 100.367188 25.476562 94.734375 28.496094 C 80.191406 37.023438 64.753906 42.734375 60.441406 59.921875 C 49.816406 64.71875 46.609375 78.320312 47.144531 94.0625 C 47.867188 97.289062 48.265625 100.578125 48.335938 103.878906 C 48.039062 105.351562 46.046875 107.230469 45.648438 108.183594 C 41.550781 120.527344 43.347656 134.070312 50.519531 144.921875 C 54.488281 150.832031 60.71875 154.839844 67.742188 156 C 68.074219 160.644531 69.285156 165.1875 71.320312 169.375 C 72.679688 172.359375 77.761719 177.71875 75.886719 181.527344 C 72.246094 184.601562 68.226562 187.199219 63.929688 189.257812 C 54.664062 194.816406 47.929688 198.214844 39.398438 204.375 C 33.863281 208.375 25.214844 208.871094 26.601562 218.054688 C 28.257812 224.90625 30.417969 231.628906 33.0625 238.160156 C 33.265625 238.785156 33.488281 239.398438 33.703125 240.015625 L 37.464844 240.015625 Z M 104.257812 34.839844 C 103.863281 35.3125 103.4375 35.753906 102.984375 36.167969 C 100.363281 38.101562 97.851562 40.171875 95.457031 42.375 C 92.472656 45.679688 89.136719 54.542969 85.175781 55.527344 C 83.179688 55.644531 81.179688 55.570312 79.199219 55.296875 C 77.933594 55.390625 76.679688 55.625 75.464844 56 C 72.644531 57.085938 69.746094 57.957031 66.792969 58.601562 C 72.777344 45.519531 91.433594 34.945312 105.992188 30.816406 C 106.792969 30.59375 107.496094 31.136719 108.160156 31.847656 C 108.070312 34.144531 105.792969 34.097656 104.257812 34.839844 Z M 85.175781 64.441406 C 87.574219 76.609375 80.6875 90.472656 83.640625 103.328125 C 84.640625 107.695312 88.121094 114.480469 82.566406 114.632812 C 82.160156 108.839844 78.851562 103.644531 73.773438 100.824219 C 68.699219 98.007812 62.542969 97.941406 57.40625 100.65625 C 56.808594 100.945312 56.226562 101.265625 55.664062 101.617188 C 54.863281 92.183594 53.535156 78.929688 59.96875 71.847656 C 66.203125 65.066406 74.839844 60.992188 84.039062 60.496094 C 84.539062 61.785156 84.921875 63.113281 85.175781 64.472656 Z M 58.03125 142.398438 C 52.804688 136.730469 49.886719 129.3125 49.855469 121.601562 C 49.996094 117.144531 51.960938 112.941406 55.285156 109.972656 C 58.613281 107.003906 63.011719 105.53125 67.457031 105.894531 C 72.929688 106.496094 75.566406 111.289062 77.121094 116.601562 C 77.550781 118.097656 77.921875 119.632812 78.207031 121.128906 C 82.246094 121.34375 88.089844 120.953125 90 117.800781 C 89.726562 110.105469 86.152344 103.9375 86.398438 96.863281 C 86.941406 90.753906 87.976562 84.699219 89.503906 78.761719 C 91.320312 72.074219 90.976562 64.984375 88.519531 58.503906 C 94.496094 44.945312 112.03125 34.246094 125 27.777344 C 141.070312 19.777344 166.65625 26.175781 181.800781 34.703125 C 183.167969 35.488281 184.476562 36.367188 185.71875 37.335938 C 190.167969 40.996094 194.140625 45.195312 197.550781 49.839844 C 199.425781 52.238281 201.222656 54.640625 203 56.953125 C 195.265625 54.65625 188.601562 58.007812 188.34375 63.878906 C 188.3125 64.539062 188.355469 65.199219 188.472656 65.847656 C 195.671875 59.28125 207.886719 65.777344 211.511719 73.046875 C 214.519531 81.914062 215.875 91.257812 215.511719 100.617188 C 217.292969 124.847656 211.277344 149.011719 198.351562 169.585938 C 195.519531 174.664062 191.824219 179.210938 187.433594 183.023438 C 176.03125 191.023438 158.703125 198.289062 143.863281 193.3125 C 124.257812 186.726562 115.34375 173.664062 104.558594 158.703125 C 105.882812 166.945312 110.050781 174.460938 116.335938 179.953125 C 121.058594 185.878906 126.992188 190.730469 133.742188 194.175781 C 128.359375 192.910156 120.144531 192.511719 117.863281 197.375 C 113.714844 197.152344 109.578125 196.71875 105.472656 196.078125 C 98.523438 195.535156 92.105469 192.160156 87.710938 186.753906 C 82.425781 178.464844 78.523438 169.371094 76.152344 159.832031 C 75.574219 157.65625 75.242188 155.425781 75.152344 153.175781 C 75.855469 149.351562 82.664062 147.679688 79.953125 142.335938 C 75.007812 142.289062 73.894531 146.832031 69.359375 147.28125 C 65.027344 147.515625 60.835938 145.707031 58.03125 142.398438 Z M 160.191406 217.441406 L 159.945312 216.390625 C 159.785156 215.726562 159.65625 215.121094 159.558594 214.488281 C 159.40625 213.394531 159.390625 212.289062 159.503906 211.191406 C 160.851562 210.1875 162.480469 209.628906 164.160156 209.59375 C 166.378906 209.902344 168.195312 211.503906 168.785156 213.660156 C 169.378906 215.820312 168.625 218.125 166.875 219.519531 C 165.121094 220.914062 162.707031 221.132812 160.734375 220.070312 C 160.566406 219.105469 160.390625 218.304688 160.222656 217.59375 Z M 97.9375 198.089844 C 103.757812 200.1875 109.898438 201.269531 116.089844 201.289062 C 116.074219 202.929688 115.769531 204.554688 115.191406 206.089844 C 114.984375 206.871094 114.875 207.675781 114.863281 208.488281 C 108.726562 207.714844 102.914062 205.273438 98.0625 201.433594 Z M 156.871094 204.800781 C 155.550781 204.441406 154.277344 203.929688 153.070312 203.28125 C 152.449219 202.945312 151.816406 202.558594 151.167969 202.136719 C 150.519531 201.710938 149.871094 201.230469 149.191406 200.703125 C 149.28125 200.359375 149.824219 200.511719 149.847656 200.097656 C 150.335938 200.3125 150.839844 200.5 151.351562 200.65625 C 152.375 200.964844 153.425781 201.171875 154.488281 201.265625 C 155.023438 201.3125 155.558594 201.335938 156.089844 201.34375 C 156.617188 201.351562 157.183594 201.34375 157.734375 201.296875 C 163.808594 200.929688 170.265625 198.433594 175.753906 197.945312 C 172.289062 200.207031 169.351562 203.03125 166.007812 205.449219 C 165.089844 205.496094 164.214844 205.519531 163.390625 205.519531 C 161.199219 205.585938 159.003906 205.359375 156.871094 204.839844 Z M 141.894531 234.449219 C 137.355469 236.902344 132.371094 238.421875 127.230469 238.921875 C 125.96875 238.625 125.632812 237.320312 125.207031 235.839844 C 125.105469 235.472656 125 235.105469 124.871094 234.726562 C 124.742188 234.351562 124.632812 234.046875 124.496094 233.703125 C 122.289062 228.886719 120.820312 223.761719 120.144531 218.503906 C 120.144531 217.800781 120.070312 217.046875 120.039062 216.265625 C 119.726562 208.710938 119.792969 198.464844 127.160156 199.871094 C 133.882812 201.296875 140.367188 203.671875 146.425781 206.921875 C 147.976562 207.769531 149.199219 208.71875 150.625 209.496094 C 151.371094 209.914062 152.160156 210.253906 152.976562 210.511719 C 153.441406 210.65625 153.914062 210.773438 154.390625 210.863281 C 154.921875 210.964844 155.457031 211.035156 155.992188 211.078125 C 155.992188 211.703125 155.945312 212.335938 155.921875 212.96875 C 153.625 214.0625 151.183594 214.820312 148.671875 215.214844 C 147.871094 215.421875 147.089844 215.703125 146.34375 216.0625 C 147.335938 216.105469 148.328125 216.203125 149.3125 216.351562 C 151.863281 216.730469 154.335938 217.515625 156.640625 218.671875 L 156.640625 219.175781 C 156.585938 220.585938 156.53125 221.988281 156.472656 223.390625 C 151.820312 227.351562 146.953125 231.058594 141.894531 234.488281 Z M 175.855469 222.160156 C 174.980469 221.953125 174.121094 221.726562 173.28125 221.488281 C 173.246094 219.085938 173.339844 216.679688 173.558594 214.289062 C 174.050781 213.953125 174.589844 213.695312 175.160156 213.527344 C 177.148438 213.078125 179.175781 212.8125 181.214844 212.726562 C 180.589844 212.425781 179.941406 212.179688 179.273438 211.992188 C 178.929688 211.894531 178.566406 211.808594 178.207031 211.734375 C 177.480469 211.578125 176.742188 211.476562 176 211.433594 C 174.90625 211.382812 173.808594 211.484375 172.742188 211.734375 C 172.539062 210.179688 172.066406 208.667969 171.34375 207.273438 L 171.800781 207.089844 C 176.671875 204.945312 187.144531 194.855469 193.121094 198.34375 C 194.609375 199.71875 195.589844 201.558594 195.902344 203.558594 C 196.800781 207.171875 197.335938 210.867188 197.503906 214.585938 C 197.652344 216.921875 197.457031 219.265625 196.921875 221.542969 C 196.664062 222.640625 196.195312 223.675781 195.542969 224.59375 C 188.917969 224.464844 182.320312 223.660156 175.855469 222.191406 Z M 175.855469 222.160156 "/>
<path style=" stroke:none;fill-rule:nonzero;fill:rgb(96.862745%,89.411765%,80.392158%);fill-opacity:1;" d="M 140.238281 150.894531 C 135.3125 148.496094 131.792969 149.816406 131.152344 150.671875 C 129.9375 152.273438 132.457031 161.121094 132.457031 161.121094 L 134.855469 161.609375 C 134.398438 151.871094 140.238281 150.894531 140.238281 150.894531 Z M 140.238281 150.894531 "/>
<path style=" stroke:none;fill-rule:nonzero;fill:rgb(11.372549%,9.803922%,9.803922%);fill-opacity:1;" d="M 171.144531 231.6875 C 169.71875 231.691406 168.542969 232.8125 168.480469 234.238281 L 173.808594 234.238281 C 173.742188 232.8125 172.570312 231.691406 171.144531 231.6875 Z M 171.144531 231.6875 "/>
<path style=" stroke:none;fill-rule:nonzero;fill:rgb(13.725491%,12.156863%,12.54902%);fill-opacity:1;" d="M 125.136719 237.960938 L 122.800781 236.734375 L 122.800781 238.152344 L 38.671875 239.375 L 37.449219 240 L 125.136719 240 Z M 125.136719 237.960938 "/>
<path style=" stroke:none;fill-rule:nonzero;fill:rgb(13.725491%,12.156863%,12.54902%);fill-opacity:1;" d="M 215.34375 239.375 L 147.34375 239.375 L 146.121094 236.734375 L 139.878906 236.734375 L 138.65625 240 L 216.550781 240 L 216.550781 238.152344 Z M 215.34375 239.375 "/>
<path style=" stroke:none;fill-rule:nonzero;fill:rgb(13.725491%,12.156863%,12.54902%);fill-opacity:1;" d="M 38.671875 239.375 L 121.601562 239.375 L 122.824219 235.472656 L 38.671875 234.246094 L 37.449219 238.152344 Z M 38.671875 239.375 "/>
<path style=" stroke:none;fill-rule:nonzero;fill:rgb(13.725491%,12.156863%,12.54902%);fill-opacity:1;" d="M 146.128906 238.152344 L 215.351562 239.375 L 216.574219 235.472656 L 147.351562 234.246094 Z M 146.128906 238.152344 "/>
</g>
</svg>
