<?xml version="1.0" encoding="UTF-8"?>
<svg xmlns="http://www.w3.org/2000/svg" xmlns:xlink="http://www.w3.org/1999/xlink" width="px" height="256px" viewBox="0 0 256 256" version="1.1">
<g id="surface1">
<path style=" stroke:none;fill-rule:nonzero;fill:rgb(60.000002%,25.882354%,35.686275%);fill-opacity:1;" d="M 216.710938 126.289062 C 216.710938 114.773438 207.378906 105.441406 195.863281 105.441406 C 195.121094 105.441406 194.390625 105.480469 193.671875 105.550781 L 222.3125 21.097656 L 100.617188 21.097656 L 129.207031 105.480469 C 128.792969 105.480469 128.367188 105.441406 127.945312 105.441406 C 117.671875 105.449219 108.933594 112.9375 107.355469 123.089844 C 105.777344 133.238281 111.824219 143.03125 121.609375 146.160156 C 117.175781 153.796875 111.652344 160.746094 105.214844 166.792969 C 96.839844 174.796875 86.890625 180.972656 76 184.929688 C 63.335938 178.921875 57.507812 164.117188 62.679688 151.089844 C 63.296875 149.648438 63.921875 148.191406 64.519531 146.734375 C 74.105469 144.480469 80.808594 135.832031 80.601562 125.988281 C 80.394531 116.144531 73.332031 107.785156 63.664062 105.933594 C 53.992188 104.082031 44.34375 109.246094 40.515625 118.316406 C 36.691406 127.390625 39.726562 137.902344 47.800781 143.535156 C 41.140625 155.601562 36.0625 168.476562 32.6875 181.839844 C 29.855469 198.921875 32.6875 217.039062 47.449219 227.289062 C 81.847656 251.136719 119.199219 212.503906 158.574219 202.800781 C 172.847656 199.28125 188.511719 199.847656 201.078125 192.558594 C 210.277344 187.332031 216.667969 178.273438 218.511719 167.855469 C 220.199219 157.953125 217.800781 147.789062 211.863281 139.6875 C 215 135.941406 216.714844 131.207031 216.710938 126.320312 Z M 148.800781 126.398438 L 148.800781 126.328125 C 148.804688 119.03125 144.992188 112.265625 138.753906 108.488281 L 161.503906 62.398438 L 184.304688 108.910156 C 178.496094 112.773438 175.007812 119.289062 175.015625 126.265625 C 175.015625 126.414062 175.015625 126.566406 175.015625 126.71875 Z M 148.800781 126.398438 "/>
<path style=" stroke:none;fill-rule:nonzero;fill:rgb(100%,100%,100%);fill-opacity:1;" d="M 221.808594 126.289062 C 221.789062 113.820312 212.914062 103.121094 200.664062 100.800781 L 229.414062 16 L 93.511719 16 L 122.3125 100.96875 C 112.023438 103.257812 104.144531 111.550781 102.378906 121.941406 C 100.617188 132.335938 105.316406 142.761719 114.273438 148.320312 C 110.65625 153.695312 106.449219 158.648438 101.726562 163.089844 C 94.421875 170.074219 85.839844 175.589844 76.449219 179.328125 C 67.335938 174.035156 63.476562 162.867188 67.375 153.078125 L 67.695312 152.335938 L 68.289062 150.9375 C 79.238281 147.136719 86.339844 136.539062 85.695312 124.964844 C 85.046875 113.394531 76.800781 103.65625 65.496094 101.101562 C 54.191406 98.550781 42.5625 103.804688 37.007812 113.976562 C 31.449219 124.148438 33.3125 136.769531 41.566406 144.902344 C 40.703125 146.753906 39.792969 148.625 38.855469 150.550781 C 33.671875 160.089844 29.898438 170.332031 27.65625 180.953125 C 23.9375 203.351562 29.9375 221.296875 44.542969 231.414062 C 52.398438 237.03125 61.816406 240.035156 71.472656 240 C 88.527344 240 105.785156 231.433594 122.671875 223.046875 C 134.472656 216.632812 146.917969 211.492188 159.808594 207.710938 C 164.5625 206.621094 169.367188 205.769531 174.207031 205.160156 C 184.457031 204.339844 194.453125 201.550781 203.640625 196.9375 C 214.136719 190.941406 221.425781 180.597656 223.535156 168.695312 C 225.238281 158.710938 223.277344 148.445312 218.015625 139.792969 C 220.503906 135.726562 221.820312 131.054688 221.816406 126.289062 Z M 211.625 126.289062 C 211.625 134.992188 204.566406 142.046875 195.863281 142.046875 C 187.160156 142.046875 180.105469 134.992188 180.105469 126.289062 C 180.105469 117.585938 187.160156 110.527344 195.863281 110.527344 C 204.5625 110.542969 211.609375 117.589844 211.625 126.289062 Z M 215.199219 26.183594 L 189.808594 101.0625 C 188.722656 101.328125 187.652344 101.664062 186.609375 102.0625 L 161.527344 50.863281 L 136.367188 101.761719 C 135.273438 101.382812 134.152344 101.078125 133.015625 100.847656 L 107.710938 26.183594 Z M 127.945312 110.527344 C 136.648438 110.527344 143.703125 117.585938 143.703125 126.289062 C 143.703125 134.992188 136.648438 142.046875 127.945312 142.046875 C 119.238281 142.046875 112.183594 134.992188 112.183594 126.289062 C 112.191406 117.585938 119.242188 110.535156 127.945312 110.527344 Z M 59.761719 110.679688 C 68.464844 110.679688 75.519531 117.734375 75.519531 126.441406 C 75.519531 135.144531 68.464844 142.199219 59.761719 142.199219 C 51.054688 142.199219 44 135.144531 44 126.441406 C 44.007812 117.742188 51.054688 110.691406 59.753906 110.679688 Z M 213.496094 166.953125 C 211.898438 175.878906 206.414062 183.636719 198.527344 188.121094 C 190.449219 192.050781 181.703125 194.410156 172.742188 195.078125 C 167.6875 195.808594 162.464844 196.558594 157.351562 197.824219 C 143.742188 201.765625 130.601562 207.164062 118.152344 213.929688 C 92.839844 226.496094 70.953125 237.351562 50.375 223.070312 C 35.28125 212.609375 35.976562 193.246094 37.734375 182.640625 C 39.804688 172.980469 43.261719 163.675781 48 155.007812 C 48.734375 153.488281 49.457031 152.007812 50.160156 150.535156 C 52.308594 151.390625 54.566406 151.957031 56.863281 152.214844 C 52.652344 167.0625 59.746094 182.785156 73.664062 189.457031 L 75.625 190.464844 L 77.695312 189.71875 C 89.257812 185.550781 99.820312 179.011719 108.703125 170.519531 C 114.570312 164.996094 119.726562 158.761719 124.046875 151.960938 C 135.402344 153.6875 146.542969 147.738281 151.417969 137.339844 C 156.296875 126.941406 153.753906 114.574219 145.167969 106.945312 L 161.472656 73.976562 L 177.945312 107.574219 C 168.226562 116.941406 167.320312 132.199219 175.863281 142.644531 C 184.40625 153.09375 199.539062 155.238281 210.648438 147.574219 C 213.621094 153.570312 214.613281 160.351562 213.488281 166.945312 Z M 213.496094 166.953125 "/>
</g>
</svg>
