<?xml version="1.0" encoding="UTF-8"?>
<svg xmlns="http://www.w3.org/2000/svg" xmlns:xlink="http://www.w3.org/1999/xlink" width="px" height="256px" viewBox="0 0 256 256" version="1.1">
<g id="surface1">
<path style=" stroke:none;fill-rule:nonzero;fill:rgb(7.450981%,66.666669%,32.156864%);fill-opacity:1;" d="M 256 128 C 256 57.308594 198.691406 0 128 0 C 57.308594 0 0 57.308594 0 128 C 0 198.691406 57.308594 256 128 256 C 198.691406 256 256 198.691406 256 128 Z M 256 128 "/>
<path style=" stroke:none;fill-rule:nonzero;fill:rgb(100%,100%,100%);fill-opacity:1;" d="M 162.214844 112.359375 C 154.128906 76.675781 135.023438 64.945312 132.964844 60.460938 C 130.714844 57.300781 128.433594 51.675781 128.433594 51.675781 C 128.398438 51.578125 128.335938 51.414062 128.265625 51.25 C 128.035156 54.414062 127.914062 55.632812 124.925781 58.824219 C 120.296875 62.441406 96.539062 82.375 94.609375 122.914062 C 92.804688 160.726562 121.921875 183.253906 125.859375 186.128906 L 126.304688 186.445312 L 126.304688 186.417969 C 126.328125 186.609375 127.554688 195.417969 128.414062 204.753906 L 131.5 204.753906 C 132.222656 198.152344 133.308594 191.601562 134.75 185.121094 L 135 184.957031 C 136.761719 183.695312 138.441406 182.320312 140.027344 180.84375 L 140.207031 180.683594 C 148.578125 172.949219 163.625 155.066406 163.476562 126.550781 C 163.445312 121.792969 163.023438 117.046875 162.214844 112.359375 Z M 128.085938 164.78125 C 128.085938 164.78125 128.085938 111.75 129.835938 111.761719 C 131.203125 111.761719 132.96875 180.164062 132.96875 180.164062 C 130.539062 179.871094 128.085938 168.90625 128.085938 164.78125 Z M 128.085938 164.78125 "/>
</g>
</svg>
