<?xml version="1.0" encoding="UTF-8"?>
<svg xmlns="http://www.w3.org/2000/svg" xmlns:xlink="http://www.w3.org/1999/xlink" width="px" height="256px" viewBox="0 0 256 256" version="1.1">
<g id="surface1">
<path style=" stroke:none;fill-rule:nonzero;fill:rgb(0.392157%,58.823532%,22.352941%);fill-opacity:1;" d="M 127.585938 16 L 128.105469 16 C 130.769531 17.269531 133.363281 18.679688 135.878906 20.222656 C 164.835938 36.875 193.789062 53.53125 222.742188 70.191406 C 225.035156 71.414062 226.347656 73.914062 226.054688 76.496094 C 225.992188 111.609375 226.054688 146.710938 226.015625 181.808594 C 225.640625 183.484375 224.617188 184.941406 223.167969 185.863281 C 192.378906 203.59375 161.585938 221.308594 130.792969 239.015625 C 129.265625 240.179688 127.183594 240.296875 125.535156 239.3125 C 94.710938 221.636719 63.910156 203.929688 33.144531 186.191406 C 31.097656 185.226562 29.835938 183.125 29.945312 180.863281 C 29.945312 145.761719 29.945312 110.660156 29.945312 75.558594 C 29.789062 73.308594 31.015625 71.191406 33.039062 70.199219 C 61.957031 53.570312 90.875 36.929688 119.792969 20.28125 C 122.367188 18.808594 124.894531 17.246094 127.585938 16 "/>
<path style=" stroke:none;fill-rule:nonzero;fill:rgb(100%,100%,100%);fill-opacity:1;" d="M 70.136719 84.304688 C 70.136719 113.257812 70.136719 142.214844 70.136719 171.175781 C 70.0625 174.414062 71.292969 177.550781 73.550781 179.871094 C 77.96875 184.238281 84.835938 184.921875 90.03125 181.519531 C 93.457031 179.191406 95.511719 175.320312 95.511719 171.175781 C 95.511719 150.214844 95.472656 129.257812 95.511719 108.296875 C 114.621094 131.175781 133.769531 154.023438 152.960938 176.839844 C 158.378906 182.328125 166.214844 184.683594 173.761719 183.097656 C 179.144531 182.035156 183.203125 177.585938 183.769531 172.128906 C 183.8125 142.574219 183.8125 113.027344 183.769531 83.480469 C 183.195312 76.941406 177.722656 71.925781 171.160156 71.925781 C 164.597656 71.925781 159.121094 76.941406 158.550781 83.480469 C 158.550781 104.777344 158.425781 126.046875 158.550781 147.335938 C 139.785156 125.207031 121.246094 102.886719 102.550781 80.679688 C 97.53125 74.246094 89.425781 71.023438 81.359375 72.265625 C 75.160156 72.953125 70.390625 78.070312 70.136719 84.304688 Z M 70.136719 84.304688 "/>
</g>
</svg>
