<?xml version="1.0" encoding="UTF-8"?>
<svg xmlns="http://www.w3.org/2000/svg" xmlns:xlink="http://www.w3.org/1999/xlink" width="px" height="256px" viewBox="0 0 256 256" version="1.1">
<g id="surface1">
<path style=" stroke:none;fill-rule:nonzero;fill:rgb(0%,77.254903%,55.686277%);fill-opacity:1;" d="M 85.183594 205.871094 C 83.933594 203.570312 83.492188 200.917969 83.929688 198.335938 L 30.777344 198.335938 L 109.726562 59.335938 L 143 118.617188 L 153.464844 110.808594 L 120.609375 51.734375 C 118.375 47.636719 114.25 44.914062 109.601562 44.480469 C 104.894531 44.675781 100.71875 47.546875 98.855469 51.871094 L 18.855469 192.617188 C 16.382812 196.625 16.121094 201.617188 18.160156 205.863281 C 20.644531 209.820312 25.164062 212.011719 29.808594 211.511719 L 96.800781 211.511719 C 92.164062 212.027344 87.644531 209.855469 85.152344 205.910156 Z M 85.183594 205.871094 "/>
<path style=" stroke:none;fill-rule:nonzero;fill:rgb(6.27451%,52.941179%,45.882353%);fill-opacity:1;" d="M 237.089844 192.894531 L 172.710938 78.585938 C 170.585938 74.476562 166.507812 71.742188 161.902344 71.328125 C 157.308594 71.523438 153.234375 74.347656 151.441406 78.585938 L 142.929688 92.183594 L 142.929688 118.585938 L 161.894531 86.015625 L 225.503906 198.585938 L 201.304688 198.585938 C 201.6875 200.863281 201.347656 203.207031 200.328125 205.28125 L 200.121094 205.695312 C 197.457031 209.46875 193.089844 211.667969 188.472656 211.550781 L 226.34375 211.550781 C 230.964844 211.679688 235.339844 209.480469 237.992188 205.695312 C 240.074219 201.582031 239.699219 196.648438 237.015625 192.894531 Z M 237.089844 192.894531 "/>
<path style=" stroke:none;fill-rule:nonzero;fill:rgb(18.431373%,28.627452%,36.862746%);fill-opacity:1;" d="M 201.863281 205.601562 L 202.070312 205.183594 L 202.632812 204.070312 C 203.316406 202.289062 203.484375 200.347656 203.121094 198.472656 C 202.761719 196.425781 202.03125 194.460938 200.960938 192.679688 L 150.671875 105.480469 L 143.070312 92.230469 L 142.9375 92.230469 L 135.265625 105.414062 L 85.046875 192.617188 C 84.070312 194.394531 83.410156 196.332031 83.097656 198.335938 C 82.621094 200.910156 83.039062 203.566406 84.28125 205.871094 C 86.859375 209.828125 91.445312 211.992188 96.136719 211.472656 L 189.800781 211.472656 C 194.554688 211.625 199.078125 209.402344 201.863281 205.542969 Z M 142.929688 118.6875 L 188.960938 198.398438 L 96.894531 198.398438 Z M 142.929688 118.6875 "/>
</g>
</svg>
