<?xml version="1.0" encoding="UTF-8"?>
<svg xmlns="http://www.w3.org/2000/svg" xmlns:xlink="http://www.w3.org/1999/xlink" width="px" height="256px" viewBox="0 0 256 256" version="1.1">
<defs>
<linearGradient id="linear0" gradientUnits="userSpaceOnUse" x1="12.4809" y1="2" x2="12.4809" y2="22.7407" gradientTransform="matrix(8,0,0,8,0,0)">
<stop offset="0" style="stop-color:rgb(19.607843%,49.411765%,74.117647%);stop-opacity:1;"/>
<stop offset="1" style="stop-color:rgb(8.235294%,39.607843%,65.490196%);stop-opacity:1;"/>
</linearGradient>
<linearGradient id="linear1" gradientUnits="userSpaceOnUse" x1="19.518999" y1="9.25928" x2="19.518999" y2="30" gradientTransform="matrix(8,0,0,8,0,0)">
<stop offset="0" style="stop-color:rgb(100%,85.490196%,29.411765%);stop-opacity:1;"/>
<stop offset="1" style="stop-color:rgb(97.647059%,77.647059%,0%);stop-opacity:1;"/>
</linearGradient>
</defs>
<g id="surface1">
<path style=" stroke:none;fill-rule:evenodd;fill:url(#linear0);" d="M 104.132812 16 C 86.554688 16 72.304688 29.796875 72.304688 46.816406 L 72.304688 68.148438 L 127.386719 68.148438 L 127.386719 74.074219 L 47.824219 74.074219 C 30.25 74.074219 16 87.871094 16 104.890625 L 16 151.109375 C 16 168.128906 30.25 181.925781 47.824219 181.925781 L 66.1875 181.925781 L 66.1875 155.851562 C 66.1875 138.832031 80.433594 125.035156 98.011719 125.035156 L 156.765625 125.035156 C 171.636719 125.035156 183.695312 113.363281 183.695312 98.964844 L 183.695312 46.816406 C 183.695312 29.796875 169.445312 16 151.867188 16 Z M 96.789062 53.925781 C 102.871094 53.925781 107.804688 49.148438 107.804688 43.257812 C 107.804688 37.367188 102.871094 32.59375 96.789062 32.59375 C 90.703125 32.59375 85.769531 37.367188 85.769531 43.257812 C 85.769531 49.148438 90.703125 53.925781 96.789062 53.925781 Z M 96.789062 53.925781 "/>
<path style=" stroke:none;fill-rule:evenodd;fill:url(#linear1);" d="M 151.867188 240 C 169.445312 240 183.691406 226.203125 183.691406 209.1875 L 183.691406 187.851562 L 128.609375 187.851562 L 128.609375 181.925781 L 208.171875 181.925781 C 225.75 181.925781 240 168.128906 240 151.109375 L 240 104.890625 C 240 87.871094 225.75 74.074219 208.171875 74.074219 L 189.8125 74.074219 L 189.8125 100.148438 C 189.8125 117.167969 175.5625 130.964844 157.988281 130.964844 L 99.234375 130.964844 C 84.359375 130.964844 72.304688 142.636719 72.304688 157.035156 L 72.304688 209.1875 C 72.304688 226.203125 86.554688 240 104.128906 240 Z M 159.210938 202.074219 C 153.128906 202.074219 148.195312 206.847656 148.195312 212.742188 C 148.195312 218.632812 153.128906 223.40625 159.210938 223.40625 C 165.296875 223.40625 170.226562 218.632812 170.226562 212.742188 C 170.226562 206.847656 165.296875 202.074219 159.210938 202.074219 Z M 159.210938 202.074219 "/>
</g>
</svg>
