<?xml version="1.0" encoding="UTF-8"?>
<svg xmlns="http://www.w3.org/2000/svg" xmlns:xlink="http://www.w3.org/1999/xlink" width="px" height="256px" viewBox="0 0 256 256" version="1.1">
<g id="surface1">
<path style=" stroke:none;fill-rule:nonzero;fill:rgb(32.549021%,75.686276%,87.058824%);fill-opacity:1;" d="M 149.429688 127.808594 C 149.429688 116.332031 139.835938 107.027344 128 107.027344 C 116.164062 107.027344 106.570312 116.332031 106.570312 127.808594 C 106.570312 139.285156 116.164062 148.585938 128 148.585938 C 139.835938 148.585938 149.429688 139.285156 149.429688 127.808594 Z M 149.429688 127.808594 "/>
<path style=" stroke:none;fill-rule:evenodd;fill:rgb(32.549021%,75.686276%,87.058824%);fill-opacity:1;" d="M 197.601562 89.230469 C 202.128906 71.398438 207.816406 38.332031 187.761719 27.121094 C 167.800781 15.960938 141.828125 37.347656 128.109375 50.183594 C 114.433594 37.476562 87.730469 16.179688 67.691406 27.425781 C 47.738281 38.625 53.894531 71.140625 58.519531 89.085938 C 39.90625 94.210938 8 105.25 8 127.808594 C 8 150.300781 39.875 162.308594 58.375 167.429688 C 53.734375 185.472656 47.886719 217.527344 67.867188 228.703125 C 87.976562 239.945312 114.601562 219.15625 128.441406 206.175781 C 142.246094 219.089844 167.972656 240.015625 187.9375 228.8125 C 207.964844 217.570312 202.75 184.945312 198.121094 166.898438 C 216.058594 161.769531 248 150.019531 248 127.808594 C 248 105.46875 215.921875 94.339844 197.601562 89.230469 Z M 195.328125 157.335938 C 192.292969 148.011719 188.191406 138.097656 183.175781 127.855469 C 187.964844 117.855469 191.90625 108.070312 194.859375 98.808594 C 208.289062 102.582031 237.746094 111.210938 237.746094 127.808594 C 237.746094 144.558594 209.476562 153.269531 195.328125 157.335938 Z M 182.800781 220.207031 C 167.902344 228.566406 145.777344 208.558594 135.582031 199.046875 C 142.34375 191.875 149.105469 183.539062 155.699219 174.277344 C 167.304688 173.28125 178.265625 171.648438 188.203125 169.421875 C 191.460938 182.1875 197.761719 211.808594 182.800781 220.207031 Z M 72.988281 220.089844 C 58.089844 211.761719 64.902344 183.15625 68.316406 169.867188 C 78.148438 171.976562 89.027344 173.492188 100.660156 174.40625 C 107.296875 183.464844 114.253906 191.792969 121.261719 199.085938 C 112.601562 207.207031 87.957031 228.457031 72.988281 220.089844 Z M 18.25 127.808594 C 18.25 110.992188 47.535156 102.425781 61.273438 98.660156 C 64.277344 108.132812 68.214844 118.035156 72.96875 128.050781 C 68.152344 138.210938 64.15625 148.273438 61.125 157.855469 C 48.03125 154.222656 18.25 144.632812 18.25 127.808594 Z M 72.828125 36.027344 C 87.789062 27.632812 110.996094 48.078125 120.925781 57.28125 C 113.957031 64.539062 107.066406 72.804688 100.480469 81.8125 C 89.195312 82.828125 78.390625 84.457031 68.457031 86.636719 C 64.730469 72.164062 57.886719 44.414062 72.828125 36.027344 Z M 163.035156 92.617188 C 170.691406 93.554688 178.027344 94.800781 184.917969 96.324219 C 182.847656 102.753906 180.273438 109.472656 177.234375 116.363281 C 172.835938 108.265625 168.109375 100.332031 163.035156 92.617188 Z M 128.113281 64.386719 C 132.84375 69.351562 137.578125 74.898438 142.238281 80.914062 C 132.789062 80.480469 123.324219 80.480469 113.871094 80.910156 C 118.535156 74.949219 123.3125 69.410156 128.113281 64.386719 Z M 78.851562 116.355469 C 75.867188 109.488281 73.3125 102.738281 71.226562 96.21875 C 78.074219 94.734375 85.375 93.519531 92.984375 92.597656 C 87.894531 100.296875 83.175781 108.226562 78.851562 116.355469 Z M 93.203125 163.726562 C 85.34375 162.875 77.929688 161.722656 71.085938 160.277344 C 73.203125 153.644531 75.8125 146.746094 78.863281 139.734375 C 83.246094 147.945312 88.035156 155.953125 93.203125 163.726562 Z M 128.398438 191.933594 C 123.539062 186.847656 118.691406 181.226562 113.957031 175.175781 C 123.460938 175.539062 132.984375 175.539062 142.488281 175.128906 C 137.8125 181.285156 133.09375 186.917969 128.398438 191.933594 Z M 177.332031 139.378906 C 180.542969 146.46875 183.246094 153.324219 185.394531 159.847656 C 178.433594 161.386719 170.921875 162.628906 163.003906 163.546875 C 168.121094 155.6875 172.917969 147.628906 177.332031 139.378906 Z M 149.976562 164.753906 C 135.441406 165.761719 120.8125 165.75 106.269531 164.835938 C 98.007812 153.132812 90.652344 140.824219 84.300781 128.046875 C 90.621094 115.296875 97.921875 103.011719 106.148438 91.328125 C 120.699219 90.261719 135.34375 90.257812 149.894531 91.332031 C 158.046875 103.015625 165.339844 115.269531 171.804688 127.90625 C 165.417969 140.648438 158.074219 152.957031 149.976562 164.753906 Z M 182.640625 35.734375 C 197.605469 44.101562 190.945312 73.816406 187.675781 86.742188 C 177.71875 84.511719 166.90625 82.855469 155.585938 81.824219 C 148.992188 72.71875 142.160156 64.441406 135.300781 57.277344 C 145.355469 47.875 167.824219 27.445312 182.640625 35.734375 Z M 182.640625 35.734375 "/>
</g>
</svg>
