<?xml version="1.0" encoding="utf-8"?>
<!-- Generator: Adobe Illustrator 16.0.0, SVG Export Plug-In . SVG Version: 6.00 Build 0)  -->
<!DOCTYPE svg PUBLIC "-//W3C//DTD SVG 1.1//EN" "http://www.w3.org/Graphics/SVG/1.1/DTD/svg11.dtd">
<svg version="1.1" id="Layer_1" xmlns="http://www.w3.org/2000/svg" xmlns:xlink="http://www.w3.org/1999/xlink" x="0px" y="0px"
	 width="256px" height="256px" viewBox="0 0 256 256" enable-background="new 0 0 256 256" xml:space="preserve">
<g>
	<g enable-background="new    ">
		<g enable-background="new    ">
			<defs>
				<path id="SVGID_1_" enable-background="new    " d="M223.335,47.198c2.642,3.261,6.159,7.631,8.442,11.151
					c1.603,2.473,6.485,10,9.012,15.76c1.288,2.933,3.039,6.83,4.192,9.816c0.944,2.444,2.056,5.762,2.792,8.278
					c1,3.416,2.123,8.031,2.852,11.515c0.557,2.652,1.198,6.22,1.432,8.923c0.34,3.931,0.79,9.177,0.919,13.123
					c0.092,2.799-0.114,6.534-0.183,9.333c-0.106,4.316-0.772,10.065-1.646,14.294c-0.583,2.821-1.236,6.62-2.01,9.396
					c-1.238,4.44-3.107,10.3-4.692,14.625c-2.039,5.567-5.77,12.588-8.614,17.793c-2.651,4.854-7.044,10.834-10.46,15.183
					c-2.892,3.679-7.095,8.322-10.513,11.519c-3.237,3.027-7.601,7.061-11.221,9.619c-2.401,1.698-5.533,4.063-8.03,5.613
					c-3.448,2.144-8.116,4.912-11.763,6.691c-5.091,2.487-12.075,5.438-17.477,7.145c-8.985,2.846-14.219,3.72-19.758,4.645
					c-2.333,0.389-8.785,1.301-18.274,1.377c-6.987,0.058-12.877-0.641-16.774-1.101c-1.139-0.135-7.234-0.916-15.436-3.055
					c-6.869-1.795-12.461-3.985-14.299-4.706c-13.323-5.222-23.269-12.1-26-14.086c-2.982-2.167-7.066-5.134-12.067-9.722
					c-3.539-3.244-8.004-7.854-11.1-11.524c-10.236-12.135-15.294-22.492-17.455-26.913c-5.949-12.176-8.795-24.318-9.835-29.609
					c-1.052-5.347-1.842-12.592-2.217-18.026c-0.276-3.996-0.12-9.351,0.05-13.354c0.182-4.312,0.823-10.055,1.645-14.292
					c1.104-5.682,3.089-13.157,4.764-18.698c1.347-4.453,3.943-10.117,5.875-14.349c1.238-2.709,3.177-6.188,4.676-8.762
					c2.781-4.783,7.045-10.836,10.463-15.188c2.89-3.68,7.276-8.141,10.513-11.517c2.634-2.748,11.256-10.276,19.252-15.236
					c7.748-4.806,15.506-9.275,29.239-13.835c3.268-1.085,7.692-2.369,11.075-3.021c10.287-1.984,10.287-1.984,18.605-2.706
					c7.651-0.663,19.033-0.152,25.5,0.858c4.553,0.711,10.605,1.834,15.061,3.005c7.988,2.098,14.265,4.689,14.324,4.715
					c5.72,2.415,8.333,3.515,13.334,6.228c6.312,3.419,10.942,6.628,12.64,7.848c2.205,1.585,6.792,4.882,12.07,9.722
					C215.774,38.916,220.115,43.637,223.335,47.198"/>
			</defs>
			<clipPath id="SVGID_2_">
				<use xlink:href="#SVGID_1_"  overflow="visible"/>
			</clipPath>
			<g clip-path="url(#SVGID_2_)">
				<path fill="#01BDEB" d="M223.335,47.198c-7.251-8.02-7.251-8.02-11.305-11.713c-7.727-6.606-7.727-6.606-11.925-9.577
					c-7.969-5.278-8.617-5.708-12.581-7.806c-8.592-4.325-8.924-4.494-13.357-6.237c-9.201-3.341-9.376-3.405-14.299-4.705
					c-9.852-2.283-10.039-2.327-15.435-3.055c-3.332-0.338-7.776-0.794-11.12-0.983"/>
				<path fill="#EC1631" d="M133.314,3.122l-5.655-0.119c-10.655,0.375-11.526,0.406-18.274,1.379
					c-11.01,2.056-12.16,2.271-19.757,4.643c-10.818,3.948-12.481,4.556-20.818,8.878C58.35,24.06,56.742,25.005,48.486,31.536
					c-8.992,8.023-10.612,9.469-17.863,18.076c-3.292,4.447-7.507,10.51-10.463,15.188c-2.228,4.173-5.138,9.778-7.099,14.084"/>
				<path fill="#FFD309" d="M13.061,78.884L9.61,87.91c-3.407,11.505-3.93,13.275-5.515,23.599
					c-1.118,11.753-1.262,13.264-0.943,22.744c0.995,11.501,1.099,12.705,2.841,20.998c2.839,10.891,3.071,11.781,5.789,18.808
					c4.494,10.279,4.668,10.679,8.026,16.541c5.312,8.49,6.418,10.258,12.847,18.197"/>
				<path fill="#01BDEB" d="M32.654,208.797l0.005,0.005c7.252,8.019,7.252,8.019,11.306,11.711c7.767,6.64,7.767,6.64,11.923,9.579
					c7.969,5.278,8.622,5.708,12.582,7.807c8.727,4.391,8.727,4.391,13.357,6.235c9.202,3.34,9.378,3.403,14.299,4.706
					c9.853,2.283,10.041,2.325,15.436,3.055c3.331,0.338,7.776,0.793,11.119,0.982"/>
				<path fill="#EC1631" d="M122.681,252.877l5.655,0.118c10.654-0.374,11.526-0.404,18.274-1.377
					c11.013-2.058,12.164-2.271,19.758-4.645c10.818-3.948,12.48-4.555,20.819-8.876c10.462-6.159,12.068-7.105,20.323-13.634
					c8.993-8.024,10.612-9.47,17.862-18.076c3.29-4.444,7.503-10.506,10.46-15.183c2.229-4.175,5.138-9.781,7.099-14.087
					c-0.87,2.029-1.873,4.024-3.016,5.978"/>
				<path fill="#FFD309" d="M239.916,183.095c1.143-1.953,2.146-3.948,3.016-5.978l3.454-9.029
					c3.405-11.505,3.929-13.273,5.516-23.598c1.118-11.757,1.259-13.265,0.942-22.745c-0.994-11.506-1.099-12.707-2.842-20.998
					c-2.84-10.894-3.073-11.784-5.789-18.809c-4.494-10.278-4.667-10.68-8.026-16.54c-5.314-8.494-6.418-10.259-12.846-18.196"/>
			</g>
		</g>
		<g enable-background="new    ">
			<defs>
				<path id="SVGID_3_" enable-background="new    " d="M223.335,47.198c1.547,1.949,3.718,4.466,5.154,6.498
					c2.424,3.433,5.512,8.115,7.698,11.704c2.649,4.351,5.565,10.523,7.5,15.237c3.231,7.874,5.034,14.65,5.821,17.991
					c0.771,3.262,1.615,7.657,2.136,10.969c0.423,2.699,0.709,6.335,1.007,9.05c0.406,3.695,0.357,8.672,0.307,12.389
					c-0.034,2.817-0.393,6.563-0.582,9.375c-0.275,4.091-1.269,9.489-2.102,13.502c-3.366,16.203-9.766,28.786-11.646,32.255
					c-2.247,4.146-5.427,9.59-8.166,13.426c-3.205,4.488-7.717,10.342-11.597,14.257c-3.283,3.315-7.652,7.778-11.356,10.613
					c-2.336,1.787-5.369,4.293-7.813,5.934c-3.66,2.455-8.6,5.663-12.51,7.7c-5.066,2.638-12.005,5.865-17.407,7.721
					c-3.599,1.236-8.468,2.672-12.147,3.632c-2.581,0.671-6.083,1.31-8.704,1.798c-3.217,0.597-7.563,1.053-10.82,1.349
					c-2.506,0.227-5.865,0.337-8.379,0.391c-7.295,0.145-13.632-0.568-17.417-0.996c-2.533-0.286-5.9-0.797-8.387-1.358
					c-9.362-2.115-9.362-2.115-14.979-3.921c-2.163-0.692-5.033-1.68-7.121-2.579c-4.054-1.745-9.453-4.12-13.332-6.224
					c-1.953-1.059-4.52-2.542-6.405-3.714c-1.896-1.175-4.34-2.871-6.2-4.104c-1.887-1.251-4.272-3.115-6.031-4.54
					c-4.52-3.673-4.52-3.673-11.562-10.532c-1.804-1.757-4.04-4.272-5.638-6.218c-1.577-1.924-3.717-4.465-5.153-6.498
					c-2.423-3.431-5.514-8.114-7.699-11.704c-2.648-4.353-5.566-10.523-7.5-15.236c-3.231-7.875-5.033-14.652-5.821-17.99
					c-0.771-3.265-1.616-7.66-2.135-10.973c-0.423-2.697-0.709-6.334-1.008-9.049c-0.407-3.698-0.356-8.672-0.309-12.389
					c0.035-2.818,0.394-6.563,0.583-9.375c0.276-4.09,1.268-9.487,2.101-13.502c3.365-16.201,9.764-28.782,11.646-32.252
					c2.246-4.146,5.425-9.587,8.164-13.424c3.204-4.489,7.719-10.345,11.599-14.263c3.282-3.312,7.654-7.777,11.357-10.611
					c2.337-1.79,5.367-4.295,7.812-5.936c3.659-2.455,8.602-5.662,12.511-7.698c5.066-2.641,12.005-5.865,17.407-7.722
					c3.598-1.237,8.469-2.673,12.149-3.632c2.58-0.671,6.081-1.311,8.702-1.797c3.215-0.596,7.563-1.054,10.819-1.349
					c2.505-0.227,5.863-0.338,8.379-0.39c7.289-0.148,13.629,0.566,17.417,0.994c2.531,0.286,5.899,0.796,8.385,1.358
					c9.363,2.116,9.363,2.116,14.98,3.92c2.163,0.695,5.032,1.682,7.12,2.58c4.055,1.746,9.453,4.119,13.334,6.224
					c6.823,3.699,13.092,7.857,18.633,12.36C209.242,32.972,215.704,38.222,223.335,47.198"/>
			</defs>
			<clipPath id="SVGID_4_">
				<use xlink:href="#SVGID_3_"  overflow="visible"/>
			</clipPath>
			<g clip-path="url(#SVGID_4_)">
				<path fill="#01BDEB" d="M133.314,3.122c3.34,0.252,7.795,0.582,11.12,0.983c10.214,1.685,10.214,1.685,15.435,3.055
					c9.605,2.843,9.605,2.843,14.299,4.705c8.93,3.853,9.102,3.926,13.357,6.237c7.83,4.539,7.83,4.539,12.581,7.806
					c7.969,6,8.122,6.115,11.925,9.577c7.511,7.281,7.656,7.42,11.305,11.713c-4.601-5.428-15.337-5.587-31.111,0.039
					c-7.971-9.401-19.859-14.971-30.943-15.462C153.704,13.406,143.772,3.537,133.314,3.122"/>
				<path fill="#EC1631" d="M13.061,78.884c2.03-4.273,4.805-9.947,7.099-14.084c2.982-4.661,7.145-10.76,10.463-15.188
					c7.939-9.108,9.369-10.75,17.863-18.076c9.666-7.341,11.15-8.47,20.323-13.634c10.963-5.365,12.11-5.926,20.818-8.878
					c11.355-3.216,12.036-3.409,19.757-4.643c11.124-1.28,11.557-1.331,18.274-1.379l5.655,0.119
					c10.458,0.416,20.39,10.284,27.967,28.653c-5.539-0.244-10.877,0.778-15.43,3.225c-4.549,2.445-7.734,6.006-9.52,10.187
					C84.721,30.69,34.814,40.903,16.076,72.911C14.934,74.86,13.931,76.853,13.061,78.884"/>
				<path fill="#FFD309" d="M32.654,208.797c-6.233-7.862-7.531-9.499-12.847-18.197c-5.174-9.661-5.484-10.241-8.026-16.541
					c-3.76-10.544-4.067-11.406-5.789-18.808c-2.048-11.044-2.311-12.463-2.841-20.998c-0.143-11.475-0.166-13.241,0.943-22.744
					C6.076,100.022,6.433,97.954,9.61,87.91l3.451-9.026c0.87-2.031,1.873-4.023,3.015-5.973
					C34.814,40.903,84.721,30.69,136.332,45.187c-3.575,8.371-1.532,19.231,6.439,28.634
					c-41.971,28.364-84.83,69.902-103.569,101.91C29.687,191.981,27.906,203.193,32.654,208.797"/>
				<path fill="#01BDEB" d="M122.681,252.877c-3.339-0.251-7.795-0.582-11.119-0.982c-10.226-1.688-10.226-1.688-15.436-3.055
					c-9.564-2.831-9.564-2.831-14.299-4.706c-8.932-3.853-9.102-3.927-13.357-6.235c-7.654-4.44-9.247-5.361-12.582-7.807
					c-7.972-6.004-8.124-6.119-11.923-9.579c-7.523-7.292-7.667-7.431-11.306-11.711l-0.005-0.005
					c-4.748-5.604-2.968-16.816,6.547-33.066c18.739-32.007,61.598-73.545,103.569-101.91c0,0.002,0.002,0.002,0.002,0.002
					c7.971,9.4,19.857,14.969,30.941,15.46c4.349,51.509-4.658,109.968-23.396,141.975
					C141.539,246.255,131.904,253.244,122.681,252.877"/>
				<path fill="#EC1631" d="M242.931,177.117c-2.029,4.274-4.803,9.947-7.099,14.087c-2.983,4.66-7.143,10.758-10.46,15.183
					c-7.938,9.108-9.369,10.75-17.862,18.076c-9.663,7.341-11.148,8.468-20.323,13.634c-10.961,5.363-12.108,5.924-20.819,8.876
					c-11.358,3.218-12.039,3.411-19.758,4.645c-11.12,1.278-11.555,1.328-18.274,1.377l-5.655-0.118
					c9.224,0.366,18.858-6.622,27.637-21.62c18.738-32.007,27.744-90.466,23.396-141.975c5.539,0.244,10.879-0.777,15.429-3.223
					c4.549-2.448,7.738-6.006,9.523-10.19C237.819,105.388,256.338,145.796,242.931,177.117"/>
				<path fill="#FFD309" d="M223.341,47.203c6.233,7.862,7.53,9.496,12.846,18.196c5.174,9.662,5.483,10.24,8.026,16.54
					c3.761,10.544,4.068,11.406,5.789,18.809c2.048,11.044,2.312,12.462,2.842,20.998c0.141,11.475,0.164,13.241-0.942,22.745
					c-1.983,11.486-2.34,13.558-5.516,23.598l-3.454,9.029c13.407-31.321-5.112-71.729-44.266-101.247
					c3.57-8.37,1.528-19.23-6.441-28.632C208,41.614,218.738,41.775,223.341,47.203"/>
				<path fill="#FFFFFF" d="M192.224,47.238"/>
				<path fill="#FFFFFF" d="M192.224,47.238c11.954,14.1,10.573,31.482-3.082,38.822c-13.655,7.342-34.417,1.862-46.37-12.237
					C130.819,59.724,132.196,42.34,145.851,35C159.507,27.659,180.269,33.137,192.224,47.238"/>
			</g>
		</g>
	</g>
</g>
</svg>
