<?xml version="1.0" encoding="UTF-8"?>
<svg xmlns="http://www.w3.org/2000/svg" xmlns:xlink="http://www.w3.org/1999/xlink" width="px" height="256px" viewBox="0 0 256 256" version="1.1">
<g id="surface1">
<path style=" stroke:none;fill-rule:nonzero;fill:rgb(100%,24.313726%,0%);fill-opacity:1;" d="M 211.761719 45.601562 C 190.03125 15.785156 149.234375 7.292969 117.414062 25.96875 L 63.679688 59.199219 C 49.113281 67.980469 38.980469 82.558594 35.832031 99.273438 C 33.277344 113.09375 35.535156 127.375 42.230469 139.734375 C 37.644531 146.484375 34.507812 154.113281 33.023438 162.136719 C 29.9375 179.066406 33.992188 196.523438 44.222656 210.359375 C 65.953125 240.179688 106.742188 248.679688 138.574219 230.023438 L 192.320312 196.800781 C 206.882812 188.015625 217.011719 173.441406 220.167969 156.726562 C 222.738281 142.894531 220.480469 128.597656 213.769531 116.230469 C 218.363281 109.484375 221.5 101.859375 222.984375 93.832031 C 226.070312 76.894531 222.007812 59.433594 211.761719 45.601562 "/>
<path style=" stroke:none;fill-rule:nonzero;fill:rgb(100%,100%,100%);fill-opacity:1;" d="M 112.175781 213.121094 C 94.984375 217.527344 76.839844 211 66.398438 196.648438 C 60.222656 188.335938 57.769531 177.835938 59.617188 167.648438 C 59.921875 165.992188 60.34375 164.363281 60.886719 162.769531 L 61.902344 159.769531 L 64.65625 161.671875 C 71.042969 166.222656 78.152344 169.667969 85.679688 171.863281 L 87.640625 172.449219 L 87.441406 174.34375 C 87.210938 177.101562 87.980469 179.851562 89.609375 182.089844 C 92.742188 186.523438 98.296875 188.550781 103.550781 187.175781 C 104.710938 186.875 105.820312 186.402344 106.839844 185.777344 L 160.441406 152.542969 C 163.078125 150.945312 164.917969 148.300781 165.503906 145.273438 C 166.085938 142.21875 165.378906 139.058594 163.550781 136.542969 C 160.402344 132.214844 154.929688 130.242188 149.742188 131.566406 C 148.578125 131.871094 147.464844 132.34375 146.441406 132.976562 L 125.863281 145.648438 C 122.480469 147.742188 118.804688 149.3125 114.953125 150.304688 C 97.746094 154.726562 79.585938 148.191406 69.136719 133.824219 C 63 125.484375 60.59375 114.976562 62.488281 104.800781 C 64.398438 94.769531 70.472656 86.019531 79.199219 80.71875 L 132.863281 47.488281 C 136.246094 45.398438 139.925781 43.832031 143.777344 42.839844 C 160.984375 38.410156 179.152344 44.941406 189.601562 59.3125 C 195.773438 67.625 198.230469 78.125 196.382812 88.3125 C 196.082031 89.96875 195.65625 91.597656 195.113281 93.191406 L 194.097656 96.191406 L 191.34375 94.296875 C 184.960938 89.738281 177.851562 86.292969 170.320312 84.105469 L 168.359375 83.511719 L 168.558594 81.617188 C 168.789062 78.855469 168.015625 76.105469 166.382812 73.871094 C 163.242188 69.535156 157.769531 67.5625 152.585938 68.894531 C 151.421875 69.195312 150.316406 69.671875 149.296875 70.304688 L 95.519531 103.425781 C 92.878906 105.015625 91.042969 107.660156 90.472656 110.6875 C 89.875 113.746094 90.582031 116.914062 92.425781 119.425781 C 95.574219 123.75 101.046875 125.71875 106.230469 124.390625 C 107.394531 124.089844 108.507812 123.617188 109.535156 122.992188 L 130.03125 110.3125 C 133.414062 108.21875 137.09375 106.652344 140.945312 105.664062 C 158.152344 101.242188 176.3125 107.769531 186.769531 122.136719 C 192.925781 130.457031 195.367188 140.953125 193.511719 151.136719 C 191.617188 161.179688 185.539062 169.941406 176.800781 175.238281 L 123.144531 208.472656 C 119.761719 210.566406 116.085938 212.132812 112.230469 213.121094 "/>
</g>
</svg>
